<svg width="100%" height="100%" viewBox="0 0 142 179" fill="none" xmlns="http://www.w3.org/2000/svg">
<path d="M1.94003 12.76L1.79004 109.27" stroke="#742868" stroke-width="2"/>
<path d="M1.79006 109.27C1.74339 125.99 1.7267 142.727 1.74004 159.48C1.7467 165.067 2.21671 168.85 3.15004 170.83C5.08337 174.917 8.87006 176.963 14.5101 176.97C49.9234 177.003 85.3334 177.013 120.74 177C134.45 176.99 137.03 172.16 137.01 158.72C136.99 149.987 136.99 141.243 137.01 132.49" stroke="#731758" stroke-width="2"/>
<path d="M137.01 132.49C136.983 93.6699 136.913 54.8399 136.8 15.9999C136.793 14.2533 136.67 12.4799 136.43 10.6799" stroke="#741651" stroke-width="2"/>
<path d="M136.43 10.68C134.63 4.57997 130.4 1.52663 123.74 1.51997C89.2266 1.48663 54.7099 1.4833 20.1899 1.50997C10.4799 1.51997 3.83994 2.44996 1.93994 12.76" stroke="#752861" stroke-width="2"/>
<path d="M139.88 132.49C139.813 132.563 139.75 132.623 139.69 132.67C139.29 132.943 139.363 133.203 139.91 133.45C141.097 133.983 141.123 133.663 139.99 132.49C139.95 132.45 139.913 132.45 139.88 132.49Z" stroke="#32212F" stroke-width="2"/>
<path d="M136.43 10.6799L135.33 12.9599C135.31 12.9989 135.279 13.0354 135.24 13.0635C135.201 13.0915 135.157 13.1093 135.116 13.114C135.075 13.1187 135.039 13.1099 135.015 13.0892C134.99 13.0684 134.978 13.0369 134.98 12.9999C134.993 12.9199 135.003 12.8266 135.01 12.7199C135.01 12.6199 134.96 12.5666 134.86 12.5599L129.7 12.2799" stroke="#DE3DAE" stroke-width="2"/>
<path d="M129.7 12.28C129.187 10.06 127.79 8.95332 125.51 8.95999C89.0001 9.08999 52.4901 8.95999 15.9801 8.96999C9.11013 8.96999 9.41013 13.82 9.26013 19.54C9.18013 22.7533 9.21344 26.03 9.36011 29.37" stroke="#E236A5" stroke-width="2"/>
<path d="M9.36001 29.3701C9.01334 39.2035 9.06002 48.9801 9.50002 58.7001" stroke="#EA36A7" stroke-width="2"/>
<path d="M9.5 58.7C9.85333 61.9133 9.85333 65.1033 9.5 68.27" stroke="#EB6A9F" stroke-width="2"/>
<path d="M9.50003 68.2699C9.38003 68.2299 9.28336 68.1199 9.21002 67.9399C9.18336 67.8799 9.15336 67.8766 9.12003 67.9299C9.01336 68.0766 8.91003 68.1766 8.81003 68.2299C8.60336 68.3433 8.50003 68.2833 8.50003 68.0499V67.5099C8.50003 67.1899 8.39336 67.1499 8.18002 67.3899C7.64002 68.0099 6.93336 68.2099 6.06003 67.9899C5.72669 67.9033 5.54669 67.6866 5.52002 67.3399L5.46002 66.5599C5.44807 66.2871 5.33995 66.075 5.15891 65.9693C4.97786 65.8635 4.73837 65.8725 4.49197 65.9944C4.24558 66.1163 4.01198 66.3413 3.84143 66.621C3.67088 66.9007 3.57699 67.2127 3.58002 67.4899L3.02002 107.27C3.02002 107.49 2.95668 107.683 2.83002 107.85L1.79004 109.27" stroke="#DE3DAE" stroke-width="2"/>
<path d="M129.7 12.28C130.193 17.1734 130.17 22.0934 129.63 27.04" stroke="#E12495" stroke-width="2"/>
<path d="M129.63 27.0399L129.27 22.3299C129.23 21.8099 128.983 21.6766 128.53 21.9299L126.41 23.1099C126.243 23.2032 126.113 23.1666 126.02 22.9999L125.86 22.7299C125.693 22.4499 125.467 22.3832 125.18 22.5299L118.38 25.9199C118.072 26.0732 117.716 26.0984 117.39 25.9899C113.79 24.7599 111.11 25.7799 107.72 25.7199C103.64 25.6499 98.81 25.8099 94.57 27.5899C93.07 28.2232 91.1266 28.4699 88.74 28.3299C88.4533 28.3099 88.2633 28.1632 88.17 27.8899C87.07 24.3999 80.52 25.6099 77.86 25.1499C72.84 24.2699 68.32 24.9799 62.01 25.7699C56.8566 26.4166 51.7533 27.1532 46.7 27.9799C46.38 28.0332 46.0833 27.9799 45.81 27.8199C42.47 25.8699 34.99 29.5599 30.38 31.4799C30.0705 31.6089 29.7219 31.6196 29.4 31.5099C28.5333 31.2099 27.8033 30.6799 27.21 29.9199" stroke="#EC1E8E" stroke-width="2"/>
<path d="M27.21 29.92C25.74 27.12 21.3 26.96 22.25 23.27C22.7 21.5 24.81 19.56 25.2 17.44C26.41 10.73 16.13 9.24999 15.54 16.49" stroke="#ED7EA3" stroke-width="2"/>
<path d="M15.54 16.49C16.2134 19.5233 17.5234 22.1967 19.47 24.51" stroke="#E12A7E" stroke-width="2"/>
<path d="M19.47 24.51C19.04 26.61 15.46 28.26 13.75 30.16" stroke="#ED7EA3" stroke-width="2"/>
<path d="M13.7499 30.1601C11.4432 30.3668 9.97986 30.1035 9.35986 29.3701" stroke="#EC1E8E" stroke-width="2"/>
<path d="M9.5 68.27L9.48999 70.28" stroke="#EA588F" stroke-width="2"/>
<path d="M9.48999 70.28L9.73999 86.98" stroke="#E8669A" stroke-width="2"/>
<path d="M9.74005 86.98L9.57007 95.58" stroke="#B9269C" stroke-width="2"/>
<path d="M9.5701 95.5801C9.12343 101.42 9.13343 107.657 9.6001 114.29" stroke="#EA6D95" stroke-width="2"/>
<path d="M9.6 114.29L9.55999 139.76C9.55332 140.167 9.73664 140.29 10.11 140.13C12.63 139.09 15.0933 137.91 17.5 136.59C21.14 134.59 24.09 130.98 28.22 128.74" stroke="#B9269C" stroke-width="2"/>
<path d="M28.2199 128.74C35.7265 128.013 43.1599 126.927 50.5199 125.48C50.8865 125.407 50.9366 125.503 50.6699 125.77C45.3899 130.997 39.3266 134.983 32.4799 137.73C28.2199 139.44 25.4599 140.75 22.1999 142.91C22.1446 142.95 22.1034 143.006 22.0822 143.071C22.0611 143.135 22.0611 143.205 22.0823 143.27C22.1035 143.334 22.1447 143.391 22.2 143.43C22.2554 143.47 22.3219 143.491 22.3899 143.49L43.2499 142.39" stroke="#EA6D95" stroke-width="2"/>
<path d="M43.25 142.39C41.3233 143.617 39.3533 144.23 37.34 144.23C32.4 144.23 27.67 144.8 22.8 145.18C22.7309 145.189 22.6671 145.222 22.6187 145.272C22.5703 145.322 22.5402 145.387 22.5333 145.456C22.5263 145.526 22.543 145.595 22.5805 145.654C22.618 145.713 22.6742 145.757 22.74 145.78C28.79 147.45 39.03 148.08 43.56 143.27" stroke="#E6559A" stroke-width="2"/>
<path d="M43.5601 143.27L44.4201 143.25" stroke="#E12495" stroke-width="2"/>
<path d="M44.42 143.25C42.9067 145.203 42.6067 146.24 43.52 146.36" stroke="#DD3991" stroke-width="2"/>
<path d="M43.52 146.36C40.2133 148.66 36.3567 149.517 31.95 148.93C31.65 148.89 31.3534 148.917 31.06 149.01L29.63 149.45C29.5327 149.483 29.4479 149.545 29.3871 149.628C29.3263 149.711 29.2926 149.81 29.2904 149.913C29.2882 150.016 29.3177 150.117 29.3749 150.202C29.4321 150.287 29.5142 150.353 29.61 150.39C34.1033 152.063 38.7067 152.5 43.42 151.7C43.7348 151.648 44.0557 151.679 44.35 151.79C46.8367 152.703 50.2534 152.533 54.6 151.28" stroke="#D02E9D" stroke-width="2"/>
<path d="M54.6001 151.28C52.1134 152.907 49.5767 153.727 46.9901 153.74C44.8234 153.753 43.0167 153.893 41.5701 154.16" stroke="#AC2090" stroke-width="2"/>
<path d="M41.5699 154.16C38.2999 153.55 35.0299 153.29 31.8999 152.22C24.0099 149.53 17.8899 147.19 10.4799 147.53C10.1599 147.543 9.96993 147.707 9.90993 148.02C9.24326 151.5 9.0266 155 9.25993 158.52" stroke="#C4289D" stroke-width="2"/>
<path d="M9.25995 158.52C9.02995 161.45 9.03994 168.74 13.4999 168.74C24.0533 168.74 34.7933 168.75 45.7199 168.77" stroke="#AC2090" stroke-width="2"/>
<path d="M45.72 168.77L74.52 168.82" stroke="#BE2BA6" stroke-width="2"/>
<path d="M74.52 168.82L87.24 168.92" stroke="#AC2090" stroke-width="2"/>
<path d="M87.24 168.92C94.84 169.04 102.433 169.053 110.02 168.96C112.4 168.93 116.4 168.31 119.71 168.8C121.35 169.05 122.44 168.67 123.51 167.54" stroke="#C4289D" stroke-width="2"/>
<path d="M123.51 167.54C124.917 167.407 126.187 167.013 127.32 166.36C127.464 166.278 127.588 166.166 127.683 166.031C127.778 165.896 127.842 165.742 127.87 165.58C129.88 155.18 129.09 141.12 128.88 132.54" stroke="#AC2090" stroke-width="2"/>
<path d="M128.88 132.54L129.08 127.74" stroke="#D02E9D" stroke-width="2"/>
<path d="M129.08 127.74C129.52 124.86 129.4 121.91 128.72 118.89" stroke="#EA6D95" stroke-width="2"/>
<path d="M128.72 118.89L129.97 99.5999C130.123 97.1866 129.32 96.8032 127.56 98.4499C125.473 100.397 123.613 103.327 121.98 107.24C121.073 109.413 118.593 113.663 114.54 119.99C114.127 120.637 113.597 120.96 112.95 120.96C112.483 120.967 112.387 120.777 112.66 120.39C116.993 114.343 120.62 107.897 123.54 101.05C124.44 98.9499 123.48 97.7699 126.4 97.1099C128.153 96.7166 128.98 95.8932 128.88 94.6399" stroke="#E12495" stroke-width="2"/>
<path d="M128.88 94.64C129.307 93.9 129.513 93.27 129.5 92.75C129.227 80.5166 129.257 67.8433 129.59 54.73" stroke="#EA6D95" stroke-width="2"/>
<path d="M129.59 54.73L129.1 45.53" stroke="#EA588F" stroke-width="2"/>
<path d="M129.1 45.53C132.6 39.94 129.77 33.45 129.63 27.04" stroke="#E92597" stroke-width="2"/>
<path d="M27.21 29.9199C25.6967 31.8733 23.8767 33.3666 21.75 34.3999C21.4567 34.5399 21.1467 34.5699 20.82 34.4899C17.92 33.7433 15.5633 32.2999 13.75 30.1599" stroke="#F57FA6" stroke-width="2"/>
<path d="M19.47 24.5099C18.3434 20.8833 18.26 18.0233 19.22 15.9299C19.2638 15.8282 19.3378 15.7429 19.4322 15.6856C19.5266 15.6282 19.6368 15.6016 19.7479 15.6092C19.859 15.6168 19.9658 15.6584 20.0538 15.7282C20.1418 15.7981 20.2068 15.8929 20.24 15.9999L21.69 20.6999C21.8634 21.2533 22.0534 21.2599 22.26 20.7199C23.3334 17.8999 23.28 15.8433 22.1 14.5499C19.93 12.1599 16.83 14.2099 15.54 16.4899" stroke="#EA8B96" stroke-width="2"/>
<path d="M129.1 45.5301C128.74 43.9034 128.443 44.4501 128.21 47.1701C128.183 47.5101 128.003 47.7168 127.67 47.7901C124.79 48.4501 121.893 49.0201 118.98 49.5001C116.96 49.8301 113.95 51.0601 110.97 50.6901C110.637 50.6434 110.333 50.5201 110.06 50.3201C108.513 49.1934 107.203 49.3734 106.13 50.8601C105.923 51.1468 105.643 51.2801 105.29 51.2601C102.62 51.0901 100.35 52.0401 97.86 51.5001C95.14 50.9201 92.64 49.7901 89.95 49.6901C86.3433 49.5434 82.76 49.8768 79.2 50.6901C78.8733 50.7634 78.5867 50.6901 78.34 50.4701C76.2667 48.6701 74.0133 47.1201 71.58 45.8201C70.24 45.1101 68.47 45.7101 67 45.3101C59.88 43.4101 53.2933 44.3668 47.24 48.1801C46.7 48.5201 46.1767 48.7334 45.67 48.8201C45.35 48.8801 45.05 48.9934 44.77 49.1601C39.7767 52.2334 34.3467 54.1001 28.48 54.7601C23.64 55.3001 19.36 58.2301 13.65 57.6801C13.3233 57.6468 13.0433 57.7501 12.81 57.9901C12.1033 58.7101 11 58.9468 9.5 58.7001" stroke="#F55288" stroke-width="2"/>
<path d="M89.3299 29.04C88.1166 29.3733 87.1533 30.02 86.4399 30.98C86.3799 31.06 86.3066 31.1233 86.2199 31.17C86.0733 31.25 85.9966 31.3766 85.9899 31.55C85.987 31.6047 85.9997 31.6591 86.0264 31.7069C86.0532 31.7547 86.0929 31.794 86.141 31.8201C86.1892 31.8463 86.2437 31.8583 86.2984 31.8547C86.353 31.8511 86.4056 31.8322 86.4499 31.8L89.5499 29.49C90.2699 28.95 90.1966 28.8 89.3299 29.04Z" stroke="#DC4598" stroke-width="2"/>
<path d="M124.06 31.06C124.56 30.68 123.82 30.08 123.46 30.04C123.402 30.0345 123.343 30.0409 123.288 30.0588C123.232 30.0767 123.181 30.1057 123.137 30.1441C123.093 30.1824 123.057 30.2293 123.032 30.2819C123.007 30.3345 122.992 30.3917 122.99 30.45C122.92 31.55 124.02 31.93 124.06 31.06Z" stroke="#E9338A" stroke-width="2"/>
<path d="M100.2 40.7501C100.353 40.7501 100.503 40.7501 100.65 40.7501C100.697 40.7478 100.743 40.7303 100.779 40.7001C100.816 40.6698 100.842 40.6286 100.853 40.5825C100.864 40.5363 100.86 40.4878 100.842 40.4441C100.823 40.4004 100.791 40.3639 100.75 40.3401C99.4033 39.6868 99.1066 39.7734 99.86 40.6001C99.9533 40.7001 100.067 40.7501 100.2 40.7501Z" stroke="#F24E93" stroke-width="2"/>
<path d="M129.59 54.73C128.11 55.2233 126.697 56.2133 125.35 57.7C125.235 57.8276 125.079 57.9106 124.909 57.9344C124.739 57.9581 124.566 57.9212 124.42 57.83C121.87 56.25 119.74 57.66 117.65 57.8C111.743 58.1866 105.833 58.5966 99.92 59.03C94 59.47 88.23 58.4 82.36 58.14C74.17 57.77 67.52 53.92 59.53 55.89" stroke="#F69A86" stroke-width="2"/>
<path d="M59.5301 55.8899C56.2701 56.5232 53.1201 57.5866 50.0801 59.0799" stroke="#C6538D" stroke-width="2"/>
<path d="M50.08 59.08C50.42 58.2133 49.9133 57.63 48.56 57.33C48.2133 57.25 47.8767 57.2866 47.55 57.44C44.13 59.06 40.5233 60.14 36.73 60.68C36.6567 60.6866 36.62 60.6533 36.62 60.58C36.6267 60.4266 36.6 60.3566 36.54 60.37C29.5867 62.43 22.64 64.5033 15.7 66.59C13.97 67.11 12.17 68.68 10.14 69.17C9.89335 69.23 9.76668 69.3833 9.76001 69.63C9.75334 69.9166 9.66332 70.1333 9.48999 70.28" stroke="#F5938A" stroke-width="2"/>
<path d="M128.88 94.64L123.84 97.82C123.56 98 123.25 98.0834 122.91 98.07C114.95 97.8167 109.17 101.15 105.57 108.07C105.383 108.437 105.237 108.42 105.13 108.02L104.82 106.83C104.77 106.647 104.678 106.479 104.551 106.338C104.425 106.197 104.267 106.088 104.09 106.02C98.5899 103.87 92.2699 120.09 90.2899 122.25C88.7166 123.97 84.4266 127.033 77.4199 131.44C77.4063 131.447 77.3908 131.449 77.3759 131.446C77.361 131.443 77.3475 131.435 77.3373 131.424C77.3271 131.413 77.3209 131.398 77.3196 131.383C77.3183 131.368 77.3219 131.353 77.3299 131.34C82.7299 124.587 87.6766 117.613 92.1699 110.42C92.2343 110.314 92.2664 110.192 92.2624 110.068C92.2584 109.944 92.2185 109.824 92.1475 109.722C92.0766 109.62 91.9776 109.541 91.8626 109.495C91.7476 109.448 91.6216 109.436 91.4999 109.46L88.7599 110.03C88.6123 110.06 88.4591 110.047 88.3182 109.994C88.1773 109.941 88.0543 109.849 87.9634 109.729C87.8725 109.608 87.8173 109.465 87.8043 109.315C87.7914 109.165 87.821 109.014 87.8899 108.88C92.5299 100.02 97.4899 89.71 104.04 82.27" stroke="#ED668C" stroke-width="2"/>
<path d="M104.04 82.2699C104.28 82.0832 104.493 81.9899 104.68 81.9899C104.987 81.9832 105.06 82.1099 104.9 82.3699L94.46 99.0099C94.3887 99.1332 94.3606 99.2775 94.38 99.4199C94.51 100.27 95.43 100.15 95.81 99.6299C100.637 93.0166 105.577 86.4833 110.63 80.0299C115.54 73.7699 118.85 67.0599 122.73 60.2199C123.023 59.7066 122.937 59.6333 122.47 59.9999C115.94 65.1799 110.81 72.4799 105.93 79.1899C105.41 79.9099 104.583 80.5633 103.45 81.1499" stroke="#F17B83" stroke-width="2"/>
<path d="M103.45 81.1499C103.077 81.4566 102.07 81.8799 100.43 82.4199C94.89 84.2699 89.58 91.8899 85.81 96.5799C76.66 107.98 64.73 116.72 55.66 128.34C52.3 132.65 48.1 140.05 43.52 142.8" stroke="#ED668C" stroke-width="2"/>
<path d="M43.5199 142.8C42.9799 142.553 42.8899 142.417 43.2499 142.39" stroke="#F39691" stroke-width="2"/>
<path d="M28.22 128.74C38.68 122.27 50.53 118.2 60.29 110.55C60.309 110.534 60.322 110.512 60.3268 110.487C60.3315 110.462 60.3277 110.437 60.3161 110.415C60.3045 110.393 60.2856 110.375 60.2627 110.365C60.2397 110.355 60.2141 110.353 60.19 110.36L46.99 114.46C46.03 114.76 45.97 114.637 46.81 114.09C54.31 109.26 62.94 107.44 70.1 102.36C70.72 101.92 70.6666 101.813 69.94 102.04C60.51 104.96 52.87 107.56 44.03 107.74C43.55 107.753 43.52 107.637 43.94 107.39C45.06 106.73 45.8366 105.847 46.27 104.74" stroke="#C66893" stroke-width="2"/>
<path d="M46.27 104.74C48.8034 102.24 50.8333 99.3867 52.36 96.1801C52.4949 95.8853 52.7391 95.6555 53.04 95.5401C57.82 93.6201 70.23 88.5201 72.32 84.5101C72.5267 84.1034 72.42 83.9834 72 84.1501C63.67 87.4401 57.06 88.3001 50.12 94.4501" stroke="#DC6C81" stroke-width="2"/>
<path d="M50.1201 94.45C36.2468 100.163 22.7401 106.777 9.6001 114.29" stroke="#C66893" stroke-width="2"/>
<path d="M9.57007 95.5799C17.8967 88.4266 26.5134 82.2299 35.4201 76.9899C35.4777 76.9561 35.5435 76.939 35.6102 76.9405C35.677 76.942 35.742 76.962 35.798 76.9983C35.8541 77.0346 35.8989 77.0858 35.9275 77.1461C35.9561 77.2064 35.9674 77.2735 35.9601 77.3399C35.5201 81.3132 34.1934 84.9599 31.9801 88.2799C31.9659 88.3106 31.9624 88.3452 31.9704 88.3781C31.9783 88.4109 31.9971 88.4402 32.0237 88.461C32.0504 88.4819 32.0833 88.4931 32.1171 88.4929C32.1509 88.4927 32.1837 88.4811 32.2101 88.4599C33.2234 87.3066 33.9367 86.1399 34.3501 84.9599C34.4501 84.6866 34.61 84.4599 34.83 84.2799L42.2901 78.1199C42.5434 77.9132 42.7067 77.9699 42.7801 78.2899C42.8201 78.4899 42.7201 78.6899 42.4801 78.8899C42.2643 79.0652 42.1554 79.2902 42.1697 79.5313C42.1841 79.7724 42.3209 80.0165 42.5597 80.2271C42.7984 80.4377 43.1263 80.6034 43.4941 80.6995C43.862 80.7955 44.25 80.8167 44.6001 80.7599C51.6334 79.6066 57.9734 76.8632 63.6201 72.5299C64.2801 72.0232 64.2134 71.8999 63.4201 72.1599C59.7501 73.3699 57.7801 73.9299 53.8701 74.3899C53.7988 74.3991 53.7265 74.3874 53.6618 74.3562C53.5971 74.325 53.5429 74.2756 53.5058 74.2141C53.4687 74.1526 53.4503 74.0817 53.4528 74.0099C53.4553 73.9381 53.4787 73.8686 53.5201 73.8099L61.2501 62.6099C61.3079 62.5292 61.3387 62.4323 61.3381 62.3331C61.3375 62.2338 61.3055 62.1373 61.2466 62.0573C61.1878 61.9774 61.1052 61.9181 61.0106 61.888C60.916 61.858 60.8143 61.8586 60.7201 61.8899L57.1601 62.9899C57.0282 63.0311 56.8877 63.0364 56.7531 63.0055C56.6184 62.9746 56.4943 62.9084 56.3936 62.8138C56.2929 62.7192 56.2192 62.5996 56.1799 62.4671C56.1406 62.3346 56.1372 62.1941 56.1701 62.0599C56.7201 59.8099 58.8101 58.5099 59.5301 55.8899" stroke="#C66893" stroke-width="2"/>
<path d="M89.1201 64.1499C84.2901 66.9699 78.4201 71.9899 76.4801 77.4099C76.3801 77.7032 76.4668 77.7766 76.7401 77.6299C82.4334 74.6899 86.6834 70.3099 89.4901 64.4899C89.7434 63.9699 89.6201 63.8566 89.1201 64.1499Z" stroke="#DC6C81" stroke-width="2"/>
<path d="M105.683 93.7055C105.856 93.8303 106.177 93.746 106.628 93.4574C107.08 93.1688 107.653 92.6816 108.315 92.0237C108.977 91.3657 109.715 90.5498 110.486 89.6226C111.258 88.6954 112.049 87.6751 112.812 86.6198C113.576 85.5646 114.299 84.4951 114.939 83.4724C115.578 82.4498 116.123 81.4939 116.541 80.6596C116.959 79.8252 117.243 79.1286 117.376 78.6095C117.509 78.0904 117.489 77.7591 117.317 77.6343C117.145 77.5096 116.823 77.5939 116.372 77.8825C115.92 78.171 115.347 78.6582 114.685 79.3162C114.023 79.9742 113.285 80.79 112.514 81.7172C111.742 82.6444 110.952 83.6648 110.188 84.72C109.424 85.7753 108.701 86.8448 108.062 87.8674C107.422 88.8901 106.877 89.8459 106.459 90.6803C106.041 91.5147 105.757 92.2113 105.624 92.7304C105.491 93.2494 105.511 93.5808 105.683 93.7055Z" stroke="#D97574" stroke-width="2"/>
<path d="M48.3356 82.8611C48.2651 82.7566 48.1233 82.7017 47.9181 82.6995C47.713 82.6974 47.4486 82.748 47.1401 82.8486C46.8316 82.9492 46.485 83.0977 46.12 83.2856C45.7551 83.4736 45.379 83.6973 45.0132 83.9441C44.6474 84.1908 44.2991 84.4557 43.9881 84.7237C43.6771 84.9917 43.4095 85.2574 43.2007 85.5058C42.9919 85.7542 42.8459 85.9803 42.771 86.1713C42.6961 86.3623 42.6939 86.5144 42.7644 86.6189C42.8349 86.7234 42.9767 86.7783 43.1818 86.7804C43.387 86.7826 43.6513 86.7319 43.9599 86.6314C44.2684 86.5308 44.615 86.3823 44.9799 86.1943C45.3449 86.0064 45.721 85.7826 46.0868 85.5359C46.4526 85.2891 46.8009 85.0242 47.1119 84.7563C47.4229 84.4883 47.6905 84.2226 47.8993 83.9742C48.1081 83.7258 48.2541 83.4997 48.329 83.3087C48.4038 83.1177 48.4061 82.9656 48.3356 82.8611Z" stroke="#DC6C81" stroke-width="2"/>
<path d="M9.73999 86.9801C21.7 74.5601 34.43 67.0801 50.08 59.0801" stroke="#C46198" stroke-width="2"/>
<path d="M104.04 82.2699C104.093 81.7566 103.897 81.3832 103.45 81.1499" stroke="#E83382" stroke-width="2"/>
<path d="M128.72 118.89C113.87 125.86 98.05 130.31 82.7 136.41" stroke="#ED668C" stroke-width="2"/>
<path d="M82.7 136.41C76.33 139.01 68.18 141.46 61.24 140.54C60.9 140.493 60.6 140.583 60.34 140.81L59.75 141.32" stroke="#E13288" stroke-width="2"/>
<path d="M59.75 141.32L59 140.75" stroke="#D32794" stroke-width="2"/>
<path d="M58.9999 140.75C59.3266 140.303 59.7866 140.033 60.3799 139.94C60.7132 139.887 60.9966 139.74 61.2299 139.5C69.5099 131 75.2099 121.89 82.0399 112.36C85.6299 107.36 88.0699 102.68 92.6399 97.2699C93.0499 96.7799 93.1899 96.0799 92.8499 95.5799C92.7602 95.4475 92.6391 95.3393 92.4973 95.2649C92.3556 95.1905 92.1974 95.1521 92.0367 95.1531C91.8759 95.1541 91.7174 95.1944 91.575 95.2706C91.4326 95.3467 91.3107 95.4564 91.2199 95.5899C87.5932 101.03 84.0233 106.677 80.5099 112.53C78.2899 116.25 75.2299 119.69 73.0299 123C66.6599 132.55 60.8999 141.67 48.2199 142.35C46.7399 142.43 45.4733 142.73 44.4199 143.25" stroke="#E13288" stroke-width="2"/>
<path d="M43.5601 143.27C43.4934 143.103 43.4801 142.947 43.5201 142.8" stroke="#EA4E91" stroke-width="2"/>
<path d="M116.327 107.506C116.37 107.46 116.404 107.406 116.426 107.347C116.448 107.288 116.458 107.225 116.455 107.162C116.453 107.099 116.438 107.037 116.412 106.98C116.386 106.922 116.349 106.871 116.302 106.828L116.244 106.773C116.198 106.73 116.144 106.697 116.084 106.675C116.025 106.653 115.963 106.643 115.9 106.645C115.837 106.648 115.775 106.662 115.717 106.689C115.66 106.715 115.608 106.752 115.565 106.798L108.173 114.754C108.13 114.8 108.097 114.854 108.075 114.913C108.053 114.972 108.042 115.035 108.045 115.098C108.047 115.161 108.062 115.223 108.088 115.28C108.114 115.338 108.152 115.389 108.198 115.432L108.256 115.487C108.302 115.53 108.357 115.563 108.416 115.585C108.475 115.607 108.538 115.617 108.601 115.615C108.664 115.612 108.726 115.598 108.783 115.571C108.84 115.545 108.892 115.508 108.935 115.462L116.327 107.506Z" stroke="#E13288" stroke-width="2"/>
<path d="M46.27 104.74V101C46.2728 100.839 46.3213 100.682 46.4098 100.547C46.4983 100.413 46.6232 100.306 46.77 100.24C49.7634 98.9 50.88 96.97 50.12 94.45" stroke="#AC2688" stroke-width="2"/>
<path d="M59 140.75L48.38 143.97C48.0667 144.063 47.88 144.27 47.82 144.59L47.7 145.21C47.662 145.399 47.5662 145.571 47.4262 145.702C47.2863 145.833 47.1092 145.916 46.92 145.94L43.52 146.36" stroke="#D03C90" stroke-width="2"/>
<path d="M129.08 127.74C117.807 133.4 106.05 136.007 93.8101 135.56C91.4034 135.473 87.9034 136.073 83.3101 137.36" stroke="#DC7094" stroke-width="2"/>
<path d="M83.3099 137.36C82.9166 137.153 82.7133 136.837 82.7 136.41" stroke="#EA7B88" stroke-width="2"/>
<path d="M128.88 132.54C124.28 135.16 119.55 137.29 114.69 138.93C109.82 140.57 109.37 142.92 103.24 141.5C100.32 140.82 97.4267 140.13 94.5601 139.43" stroke="#9F238F" stroke-width="2"/>
<path d="M94.56 139.43L93.47 139.54C93.1033 139.573 92.9 139.773 92.86 140.14C92.5467 143.093 90.8433 144.657 87.75 144.83C87.4833 144.85 87.2833 144.98 87.15 145.22L86.81 145.85C86.6167 146.217 86.3133 146.35 85.9 146.25C82.58 145.457 79.1133 145.15 75.5 145.33" stroke="#B62B9C" stroke-width="2"/>
<path d="M75.5 145.33C74.3134 145.197 73.7234 145.44 73.73 146.06" stroke="#D140AD" stroke-width="2"/>
<path d="M73.73 146.06C71.6833 145.547 69.73 145.55 67.87 146.07C67.5572 146.155 67.2296 146.144 66.93 146.04C61.1167 144.073 55.2267 144.23 49.26 146.51" stroke="#B62B9C" stroke-width="2"/>
<path d="M49.2601 146.51C48.4401 146.65 48.2134 147.217 48.5801 148.21C48.7001 148.523 48.9134 148.75 49.2201 148.89L54.6001 151.28" stroke="#9F238F" stroke-width="2"/>
<path d="M59.75 141.32C61.63 144.09 80.14 138.65 83.31 137.36" stroke="#D03C90" stroke-width="2"/>
<path d="M123.51 167.54L122.12 166.85" stroke="#931D8F" stroke-width="2"/>
<path d="M122.12 166.85C120.853 166.177 120.04 165.29 119.68 164.19" stroke="#B95591" stroke-width="2"/>
<path d="M119.68 164.19C119.613 163.81 119.457 163.577 119.21 163.49" stroke="#9F397E" stroke-width="2"/>
<path d="M119.21 163.49C120.7 160.18 120.93 154.24 124.37 152.84C124.59 152.749 124.781 152.6 124.924 152.41C125.066 152.219 125.154 151.993 125.179 151.757C125.203 151.52 125.163 151.281 125.063 151.065C124.963 150.849 124.807 150.664 124.61 150.53L119.11 146.78C118.949 146.669 118.766 146.593 118.573 146.555C118.381 146.517 118.182 146.519 117.99 146.56C115.197 147.187 113.033 148.703 111.5 151.11C111.409 151.255 111.376 151.428 111.405 151.596C111.435 151.764 111.526 151.915 111.66 152.02L115.8 155.3C116.06 155.507 116.187 155.777 116.18 156.11C116.127 158.117 115.587 159.3 114.56 159.66" stroke="#B95591" stroke-width="2"/>
<path d="M114.56 159.66L88.65 167.05C88.07 167.21 88.05 167.43 88.59 167.71C88.7967 167.817 89.0167 167.93 89.25 168.05C89.3175 168.085 89.3719 168.14 89.405 168.209C89.4381 168.277 89.4481 168.354 89.4334 168.429C89.4187 168.503 89.3802 168.571 89.3237 168.622C89.2671 168.672 89.1957 168.703 89.12 168.71L87.24 168.92" stroke="#931D8F" stroke-width="2"/>
<path d="M74.52 168.82C73.9733 168.307 73.6666 167.9 73.6 167.6C73.5399 167.355 73.5754 167.098 73.6989 166.882C73.8223 166.667 74.0239 166.512 74.26 166.45C77.88 165.5 80.97 164.74 84.96 164.14C90.12 163.36 100.12 161.8 102.67 156.82C103.41 155.38 102.993 154.847 101.42 155.22C92.2866 157.4 82.98 158.967 73.5 159.92C69.5533 160.313 66.2466 159.773 63.58 158.3C63.2933 158.14 63.01 158.147 62.73 158.32C58.85 160.68 54.58 161.92 51.1 164.88C49.32 166.393 47.5266 167.69 45.72 168.77" stroke="#8D2098" stroke-width="2"/>
<path d="M9.26001 158.52C9.40668 158.107 9.58665 157.787 9.79999 157.56C10.0533 157.307 10.2667 157.34 10.44 157.66C11.5733 159.787 13.4133 160.467 15.96 159.7C22.3267 157.793 28.6067 156.913 34.8 157.06C36.86 157.11 38.19 156.29 40.22 155.95C40.52 155.897 40.77 155.753 40.97 155.52C41.29 155.147 41.49 154.693 41.57 154.16" stroke="#931D8F" stroke-width="2"/>
<path d="M49.26 146.51C56.39 147.05 63.33 149.51 70.85 151.99C77.4 154.15 83.39 152.35 89.48 151.27C91.86 150.84 98.26 149.64 99.19 147.8C100.37 145.45 98.15 142.37 96.05 141.69C95.71 141.583 95.3867 141.437 95.08 141.25L94.08 140.66C93.72 140.447 93.6967 140.2 94.01 139.92L94.56 139.43" stroke="#931D8F" stroke-width="2"/>
<path d="M73.73 146.06L78.03 148.1C78.339 148.245 78.6097 148.46 78.82 148.73C79.22 149.243 79.7633 149.387 80.45 149.16C80.5372 149.13 80.6157 149.08 80.6786 149.012C80.7415 148.945 80.7869 148.863 80.8106 148.774C80.8343 148.685 80.8357 148.592 80.8147 148.502C80.7937 148.412 80.7508 148.329 80.69 148.26C79.71 147.12 77.98 146.143 75.5 145.33" stroke="#C53AAD" stroke-width="2"/>
<path d="M119.21 163.49L117.81 163.28C117.49 163.233 117.173 163.257 116.86 163.35C116.127 163.57 115.853 163.907 116.04 164.36C116.167 164.673 116.393 164.797 116.72 164.73C117.393 164.59 117.837 164.797 118.05 165.35C118.25 165.877 118.477 165.89 118.73 165.39C119.037 164.79 119.353 164.39 119.68 164.19" stroke="#DD798D" stroke-width="2"/>
<path d="M122.12 166.85C121.253 167.543 120.13 167.827 118.75 167.7C118.437 167.673 118.16 167.557 117.92 167.35L114.58 164.59C114.36 164.41 114.327 164.203 114.48 163.97C115.393 162.51 116.703 161.787 118.41 161.8C118.85 161.8 118.917 161.643 118.61 161.33C117.563 160.257 116.39 160.073 115.09 160.78C115.027 160.814 114.956 160.831 114.884 160.828C114.812 160.826 114.743 160.804 114.682 160.765C114.622 160.726 114.573 160.672 114.541 160.607C114.509 160.543 114.495 160.471 114.5 160.4L114.56 159.66" stroke="#D15D9E" stroke-width="2"/>
<path d="M116.35 150.95L116.28 151.62C116.277 151.644 116.279 151.669 116.287 151.693C116.294 151.716 116.306 151.738 116.322 151.757C116.338 151.776 116.357 151.791 116.379 151.802C116.401 151.813 116.425 151.819 116.45 151.82L116.63 151.84C117.517 151.929 118.396 152.006 119.216 152.069C120.037 152.132 120.783 152.178 121.412 152.205C122.04 152.232 122.539 152.239 122.878 152.226C123.218 152.213 123.392 152.181 123.39 152.13L123.42 151.85C123.39 151.747 122.674 151.581 121.426 151.387C120.177 151.192 118.495 150.985 116.74 150.81L116.55 150.79C116.526 150.787 116.502 150.789 116.479 150.796C116.457 150.802 116.435 150.813 116.417 150.828C116.398 150.843 116.382 150.862 116.371 150.882C116.36 150.903 116.352 150.926 116.35 150.95Z" stroke="#DA687E" stroke-width="2"/>
<path d="M136.43 10.68L135.33 12.96C135.31 12.9989 135.279 13.0355 135.24 13.0635C135.201 13.0915 135.157 13.1094 135.116 13.1141C135.075 13.1187 135.04 13.11 135.015 13.0892C134.99 13.0684 134.978 13.0369 134.98 13C134.993 12.92 135.003 12.8266 135.01 12.72C135.01 12.62 134.96 12.5666 134.86 12.56L129.7 12.28C129.187 10.06 127.79 8.9533 125.51 8.95996C89 9.08996 52.49 8.95996 15.98 8.96996C9.11004 8.96996 9.41004 13.82 9.26004 19.54C9.18004 22.7533 9.21335 26.03 9.36002 29.37C9.01335 39.2033 9.06003 48.98 9.50003 58.7C9.85336 61.9133 9.85336 65.1033 9.50003 68.27C9.38003 68.23 9.28336 68.12 9.21002 67.94C9.18336 67.88 9.15336 67.8766 9.12003 67.93C9.01336 68.0766 8.91003 68.1766 8.81003 68.23C8.60336 68.3433 8.50003 68.2833 8.50003 68.05V67.51C8.50003 67.19 8.39336 67.15 8.18002 67.39C7.64002 68.01 6.93336 68.21 6.06003 67.99C5.72669 67.9033 5.54669 67.6866 5.52002 67.34L5.46002 66.56C5.44807 66.2872 5.33995 66.0751 5.15891 65.9693C4.97786 65.8635 4.73837 65.8726 4.49197 65.9945C4.24558 66.1163 4.01198 66.3413 3.84143 66.621C3.67088 66.9007 3.57699 67.2127 3.58002 67.49L3.02002 107.27C3.02002 107.49 2.95668 107.683 2.83002 107.85L1.79004 109.27L1.94003 12.76C3.84003 2.44996 10.48 1.51997 20.19 1.50997C54.71 1.4833 89.2267 1.48663 123.74 1.51997C130.4 1.52663 134.63 4.57997 136.43 10.68Z" fill="#DF4EBE"/>
<path d="M129.7 12.28C130.193 17.1733 130.17 22.0933 129.63 27.04L129.27 22.33C129.23 21.81 128.983 21.6767 128.53 21.93L126.41 23.11C126.243 23.2033 126.113 23.1667 126.02 23L125.86 22.73C125.693 22.45 125.467 22.3833 125.18 22.53L118.38 25.92C118.072 26.0733 117.716 26.0985 117.39 25.99C113.79 24.76 111.11 25.78 107.72 25.72C103.64 25.65 98.8101 25.81 94.5701 27.59C93.0701 28.2233 91.1268 28.47 88.7401 28.33C88.4534 28.31 88.2635 28.1633 88.1701 27.89C87.0701 24.4 80.5201 25.61 77.8601 25.15C72.8401 24.27 68.3201 24.98 62.0101 25.77C56.8568 26.4167 51.7535 27.1533 46.7001 27.98C46.3801 28.0333 46.0835 27.98 45.8101 27.82C42.4701 25.87 34.9901 29.56 30.3801 31.48C30.0706 31.609 29.7221 31.6197 29.4001 31.51C28.5335 31.21 27.8034 30.68 27.2101 29.92C25.7401 27.12 21.3001 26.96 22.2501 23.27C22.7001 21.5 24.8101 19.56 25.2001 17.44C26.4101 10.73 16.1301 9.24999 15.5401 16.49C16.2135 19.5233 17.5235 22.1967 19.4701 24.51C19.0401 26.61 15.4601 28.26 13.7501 30.16C11.4435 30.3667 9.98011 30.1033 9.36011 29.37C9.21344 26.03 9.18013 22.7533 9.26013 19.54C9.41013 13.82 9.11013 8.96999 15.9801 8.96999C52.4901 8.95999 89.0001 9.08999 125.51 8.95999C127.79 8.95332 129.187 10.06 129.7 12.28Z" fill="#E41D8B"/>
<path d="M136.43 10.6799C136.67 12.4799 136.793 14.2533 136.8 15.9999C136.913 54.8399 136.983 93.6699 137.01 132.49C136.99 141.243 136.99 149.987 137.01 158.72C137.03 172.16 134.45 176.99 120.74 177C85.3334 177.013 49.9234 177.003 14.5101 176.97C8.87006 176.963 5.08337 174.917 3.15004 170.83C2.21671 168.85 1.7467 165.067 1.74004 159.48C1.7267 142.727 1.74339 125.99 1.79006 109.27L2.83003 107.85C2.9567 107.683 3.02004 107.49 3.02004 107.27L3.58003 67.4899C3.57701 67.2127 3.6709 66.9007 3.84145 66.621C4.012 66.3413 4.2456 66.1163 4.49199 65.9944C4.73839 65.8725 4.97788 65.8635 5.15892 65.9693C5.33997 66.075 5.44809 66.2871 5.46004 66.5599L5.52004 67.3399C5.5467 67.6866 5.72671 67.9033 6.06005 67.9899C6.93338 68.2099 7.64004 68.0099 8.18004 67.3899C8.39337 67.1499 8.50005 67.1899 8.50005 67.5099V68.0499C8.50005 68.2833 8.60338 68.3433 8.81005 68.2299C8.91005 68.1766 9.01338 68.0766 9.12004 67.9299C9.15338 67.8766 9.18337 67.8799 9.21004 67.9399C9.28337 68.1199 9.38005 68.2299 9.50005 68.2699L9.49004 70.2799L9.74004 86.9799L9.57006 95.5799C9.12339 101.42 9.13339 107.657 9.60005 114.29L9.56005 139.76C9.55338 140.167 9.7367 140.29 10.11 140.13C12.63 139.09 15.0934 137.91 17.5 136.59C21.14 134.59 24.09 130.98 28.22 128.74C35.7267 128.013 43.16 126.927 50.52 125.48C50.8867 125.407 50.9367 125.503 50.6701 125.77C45.3901 130.997 39.3267 134.983 32.4801 137.73C28.2201 139.44 25.4601 140.75 22.2001 142.91C22.1448 142.95 22.1036 143.006 22.0824 143.07C22.0613 143.135 22.0613 143.205 22.0825 143.27C22.1037 143.334 22.1449 143.39 22.2002 143.43C22.2555 143.47 22.322 143.491 22.3901 143.49L43.25 142.39C41.3234 143.617 39.3534 144.23 37.34 144.23C32.4 144.23 27.67 144.8 22.8 145.18C22.731 145.189 22.6671 145.222 22.6188 145.272C22.5704 145.322 22.5403 145.387 22.5333 145.456C22.5264 145.526 22.543 145.595 22.5805 145.654C22.618 145.713 22.6742 145.757 22.74 145.78C28.79 147.45 39.03 148.08 43.56 143.27L44.4201 143.25C42.9067 145.203 42.6067 146.24 43.52 146.36C40.2134 148.66 36.3567 149.517 31.9501 148.93C31.6501 148.89 31.3534 148.917 31.06 149.01L29.6301 149.45C29.5327 149.483 29.4479 149.545 29.3871 149.628C29.3264 149.711 29.2926 149.81 29.2904 149.913C29.2882 150.016 29.3177 150.117 29.3749 150.202C29.4321 150.287 29.5142 150.353 29.61 150.39C34.1034 152.063 38.7067 152.5 43.4201 151.7C43.7349 151.648 44.0557 151.679 44.3501 151.79C46.8367 152.703 50.2534 152.533 54.6001 151.28C52.1134 152.907 49.5767 153.727 46.99 153.74C44.8234 153.753 43.0167 153.893 41.5701 154.16C38.3001 153.55 35.03 153.29 31.9 152.22C24.01 149.53 17.8901 147.19 10.4801 147.53C10.1601 147.543 9.97005 147.707 9.91005 148.02C9.24338 151.5 9.02672 155 9.26006 158.52C9.03006 161.45 9.04005 168.74 13.5 168.74C24.0534 168.74 34.7934 168.75 45.72 168.77L74.52 168.82L87.24 168.92C94.84 169.04 102.433 169.053 110.02 168.96C112.4 168.93 116.4 168.31 119.71 168.8C121.35 169.05 122.44 168.67 123.51 167.54C124.917 167.407 126.187 167.013 127.32 166.36C127.464 166.278 127.588 166.166 127.683 166.031C127.778 165.896 127.842 165.742 127.87 165.58C129.88 155.18 129.09 141.12 128.88 132.54L129.08 127.74C129.52 124.86 129.4 121.91 128.72 118.89L129.97 99.5999C130.123 97.1866 129.32 96.8033 127.56 98.4499C125.473 100.397 123.613 103.327 121.98 107.24C121.073 109.413 118.593 113.663 114.54 119.99C114.127 120.637 113.597 120.96 112.95 120.96C112.483 120.967 112.387 120.777 112.66 120.39C116.993 114.343 120.62 107.897 123.54 101.05C124.44 98.9499 123.48 97.7699 126.4 97.1099C128.153 96.7166 128.98 95.8933 128.88 94.6399C129.307 93.8999 129.513 93.2699 129.5 92.7499C129.227 80.5166 129.257 67.8433 129.59 54.7299L129.1 45.5299C132.6 39.9399 129.77 33.4499 129.63 27.0399C130.17 22.0933 130.193 17.1733 129.7 12.2799L134.86 12.5599C134.96 12.5666 135.01 12.6199 135.01 12.7199C135.003 12.8266 134.993 12.9199 134.98 12.9999C134.978 13.0369 134.99 13.0684 135.015 13.0892C135.04 13.1099 135.075 13.1187 135.116 13.114C135.157 13.1093 135.201 13.0915 135.24 13.0635C135.279 13.0354 135.31 12.9989 135.33 12.9599L136.43 10.6799Z" fill="#DD2B9E"/>
<path d="M27.21 29.92C25.6967 31.8733 23.8767 33.3667 21.75 34.4C21.4567 34.54 21.1467 34.57 20.82 34.49C17.92 33.7433 15.5633 32.3 13.75 30.16C15.46 28.26 19.04 26.61 19.47 24.51C18.3433 20.8833 18.26 18.0233 19.22 15.93C19.2638 15.8283 19.3378 15.743 19.4322 15.6856C19.5266 15.6283 19.6367 15.6016 19.7479 15.6093C19.859 15.6169 19.9658 15.6584 20.0537 15.7283C20.1417 15.7981 20.2067 15.893 20.24 16L21.69 20.7C21.8633 21.2533 22.0533 21.26 22.26 20.72C23.3333 17.9 23.28 15.8433 22.1 14.55C19.93 12.16 16.83 14.21 15.54 16.49C16.13 9.24999 26.41 10.73 25.2 17.44C24.81 19.56 22.7 21.5 22.25 23.27C21.3 26.96 25.74 27.12 27.21 29.92Z" fill="#E41D8B"/>
<path d="M19.47 24.5099C17.5234 22.1966 16.2134 19.5233 15.54 16.4899C16.83 14.2099 19.93 12.1599 22.1 14.5499C23.28 15.8433 23.3334 17.8999 22.26 20.7199C22.0534 21.2599 21.8634 21.2533 21.69 20.6999L20.24 15.9999C20.2068 15.8929 20.1418 15.7981 20.0538 15.7282C19.9658 15.6584 19.859 15.6168 19.7479 15.6092C19.6368 15.6016 19.5266 15.6282 19.4322 15.6856C19.3378 15.7429 19.2638 15.8282 19.22 15.9299C18.26 18.0233 18.3434 20.8833 19.47 24.5099Z" fill="#DD3771"/>
<path d="M129.63 27.0399C129.77 33.4499 132.6 39.9399 129.1 45.5299C128.74 43.9032 128.443 44.4499 128.21 47.1699C128.183 47.5099 128.003 47.7166 127.67 47.7899C124.79 48.4499 121.893 49.0199 118.98 49.4999C116.96 49.8299 113.95 51.0599 110.97 50.6899C110.637 50.6432 110.333 50.5199 110.06 50.3199C108.513 49.1932 107.203 49.3732 106.13 50.8599C105.923 51.1466 105.643 51.2799 105.29 51.2599C102.62 51.0899 100.35 52.0399 97.86 51.4999C95.14 50.9199 92.64 49.7899 89.95 49.6899C86.3434 49.5432 82.76 49.8766 79.2 50.6899C78.8734 50.7632 78.5867 50.6899 78.34 50.4699C76.2667 48.6699 74.0133 47.1199 71.58 45.8199C70.24 45.1099 68.47 45.7099 67 45.3099C59.88 43.4099 53.2933 44.3666 47.24 48.1799C46.7 48.5199 46.1767 48.7332 45.67 48.8199C45.35 48.8799 45.05 48.9932 44.77 49.1599C39.7767 52.2332 34.3467 54.0999 28.48 54.7599C23.64 55.2999 19.36 58.2299 13.65 57.6799C13.3233 57.6466 13.0434 57.7499 12.81 57.9899C12.1034 58.7099 11 58.9466 9.50002 58.6999C9.06002 48.9799 9.01334 39.2032 9.36001 29.3699C9.98001 30.1032 11.4434 30.3666 13.75 30.1599C15.5634 32.2999 17.92 33.7432 20.82 34.4899C21.1467 34.5699 21.4567 34.5399 21.75 34.3999C23.8767 33.3666 25.6967 31.8732 27.21 29.9199C27.8033 30.6799 28.5333 31.2099 29.4 31.5099C29.722 31.6196 30.0705 31.6089 30.38 31.4799C34.99 29.5599 42.47 25.8699 45.81 27.8199C46.0833 27.9799 46.38 28.0332 46.7 27.9799C51.7534 27.1532 56.8567 26.4166 62.01 25.7699C68.32 24.9799 72.84 24.2699 77.86 25.1499C80.52 25.6099 87.07 24.3999 88.17 27.8899C88.2634 28.1632 88.4533 28.3099 88.74 28.3299C91.1267 28.4699 93.07 28.2232 94.57 27.5899C98.81 25.8099 103.64 25.6499 107.72 25.7199C111.11 25.7799 113.79 24.7599 117.39 25.9899C117.716 26.0984 118.072 26.0732 118.38 25.9199L125.18 22.5299C125.467 22.3832 125.693 22.4499 125.86 22.7299L126.02 22.9999C126.113 23.1666 126.243 23.2032 126.41 23.1099L128.53 21.9299C128.983 21.6766 129.23 21.8099 129.27 22.3299L129.63 27.0399ZM89.33 29.0399C88.1167 29.3732 87.1534 30.0199 86.44 30.9799C86.38 31.0599 86.3067 31.1232 86.22 31.1699C86.0734 31.2499 85.9967 31.3766 85.99 31.5499C85.9871 31.6046 85.9998 31.659 86.0265 31.7068C86.0533 31.7546 86.093 31.7939 86.1411 31.8201C86.1893 31.8462 86.2438 31.8582 86.2985 31.8546C86.3532 31.8511 86.4057 31.8321 86.45 31.7999L89.55 29.4899C90.27 28.9499 90.1967 28.7999 89.33 29.0399ZM124.06 31.0599C124.56 30.6799 123.82 30.0799 123.46 30.0399C123.402 30.0344 123.343 30.0408 123.288 30.0587C123.232 30.0766 123.181 30.1056 123.137 30.144C123.093 30.1823 123.057 30.2292 123.032 30.2818C123.007 30.3344 122.992 30.3916 122.99 30.4499C122.92 31.5499 124.02 31.9299 124.06 31.0599ZM100.2 40.7499C100.353 40.7499 100.503 40.7499 100.65 40.7499C100.697 40.7476 100.743 40.7301 100.78 40.6999C100.816 40.6697 100.842 40.6284 100.853 40.5823C100.865 40.5361 100.861 40.4876 100.842 40.4439C100.823 40.4002 100.791 40.3637 100.75 40.3399C99.4034 39.6866 99.1067 39.7732 99.86 40.5999C99.9533 40.6999 100.067 40.7499 100.2 40.7499Z" fill="#F41E90"/>
<path d="M89.5499 29.49L86.4499 31.8C86.4056 31.8322 86.353 31.8511 86.2984 31.8547C86.2437 31.8583 86.1892 31.8463 86.141 31.8201C86.0929 31.794 86.0532 31.7547 86.0264 31.7069C85.9997 31.6591 85.987 31.6047 85.9899 31.55C85.9966 31.3766 86.0733 31.25 86.2199 31.17C86.3066 31.1233 86.3799 31.06 86.4399 30.98C87.1533 30.02 88.1166 29.3733 89.3299 29.04C90.1966 28.8 90.2699 28.95 89.5499 29.49Z" fill="#C36CA0"/>
<path d="M124.06 31.06C124.02 31.93 122.92 31.55 122.99 30.45C122.992 30.3917 123.007 30.3345 123.032 30.2819C123.057 30.2293 123.093 30.1824 123.137 30.1441C123.181 30.1057 123.232 30.0767 123.288 30.0588C123.343 30.0409 123.402 30.0345 123.46 30.04C123.82 30.08 124.56 30.68 124.06 31.06Z" fill="#DD4784"/>
<path d="M99.86 40.6001C99.1066 39.7734 99.4033 39.6868 100.75 40.3401C100.791 40.3639 100.823 40.4004 100.842 40.4441C100.86 40.4878 100.864 40.5363 100.853 40.5825C100.842 40.6286 100.816 40.6698 100.779 40.7001C100.743 40.7303 100.697 40.7478 100.65 40.7501C100.503 40.7501 100.353 40.7501 100.2 40.7501C100.067 40.7501 99.9533 40.7001 99.86 40.6001Z" fill="#EF7E96"/>
<path d="M129.1 45.5301L129.59 54.7301C128.11 55.2234 126.697 56.2134 125.35 57.7001C125.235 57.8277 125.079 57.9107 124.909 57.9345C124.739 57.9582 124.566 57.9213 124.42 57.8301C121.87 56.2501 119.74 57.6601 117.65 57.8001C111.743 58.1868 105.833 58.5968 99.92 59.0301C94 59.4701 88.23 58.4001 82.36 58.1401C74.17 57.7701 67.52 53.9201 59.53 55.8901C56.27 56.5234 53.12 57.5868 50.08 59.0801C50.42 58.2134 49.9133 57.6301 48.56 57.3301C48.2133 57.2501 47.8767 57.2868 47.55 57.4401C44.13 59.0601 40.5233 60.1401 36.73 60.6801C36.6567 60.6868 36.62 60.6534 36.62 60.5801C36.6267 60.4268 36.6 60.3568 36.54 60.3701C29.5867 62.4301 22.64 64.5034 15.7 66.5901C13.97 67.1101 12.17 68.6801 10.14 69.1701C9.89335 69.2301 9.76668 69.3834 9.76001 69.6301C9.75334 69.9168 9.66332 70.1334 9.48999 70.2801L9.5 68.2701C9.85333 65.1034 9.85333 61.9134 9.5 58.7001C11 58.9468 12.1033 58.7101 12.81 57.9901C13.0433 57.7501 13.3233 57.6468 13.65 57.6801C19.36 58.2301 23.64 55.3001 28.48 54.7601C34.3467 54.1001 39.7767 52.2334 44.77 49.1601C45.05 48.9934 45.35 48.8801 45.67 48.8201C46.1767 48.7334 46.7 48.5201 47.24 48.1801C53.2933 44.3668 59.88 43.4101 67 45.3101C68.47 45.7101 70.24 45.1101 71.58 45.8201C74.0133 47.1201 76.2667 48.6701 78.34 50.4701C78.5867 50.6901 78.8733 50.7634 79.2 50.6901C82.76 49.8768 86.3433 49.5434 89.95 49.6901C92.64 49.7901 95.14 50.9201 97.86 51.5001C100.35 52.0401 102.62 51.0901 105.29 51.2601C105.643 51.2801 105.923 51.1468 106.13 50.8601C107.203 49.3734 108.513 49.1934 110.06 50.3201C110.333 50.5201 110.637 50.6434 110.97 50.6901C113.95 51.0601 116.96 49.8301 118.98 49.5001C121.893 49.0201 124.79 48.4501 127.67 47.7901C128.003 47.7168 128.183 47.5101 128.21 47.1701C128.443 44.4501 128.74 43.9034 129.1 45.5301Z" fill="#F6857F"/>
<path d="M129.59 54.73C129.257 67.8433 129.227 80.5166 129.5 92.75C129.513 93.27 129.307 93.9 128.88 94.64L123.84 97.82C123.56 98 123.25 98.0833 122.91 98.07C114.95 97.8166 109.17 101.15 105.57 108.07C105.383 108.437 105.237 108.42 105.13 108.02L104.82 106.83C104.77 106.647 104.678 106.479 104.552 106.338C104.425 106.197 104.267 106.088 104.09 106.02C98.5901 103.87 92.2701 120.09 90.2901 122.25C88.7168 123.97 84.4268 127.033 77.4201 131.44C77.4064 131.447 77.391 131.449 77.3761 131.446C77.3612 131.443 77.3476 131.435 77.3375 131.424C77.3273 131.413 77.3211 131.398 77.3198 131.383C77.3184 131.368 77.322 131.353 77.3301 131.34C82.7301 124.587 87.6768 117.613 92.1701 110.42C92.2344 110.314 92.2665 110.192 92.2625 110.068C92.2586 109.944 92.2187 109.824 92.1477 109.722C92.0767 109.62 91.9777 109.541 91.8628 109.495C91.7478 109.448 91.6218 109.436 91.5001 109.46L88.7601 110.03C88.6124 110.06 88.4593 110.047 88.3184 109.994C88.1774 109.941 88.0544 109.849 87.9635 109.729C87.8726 109.608 87.8175 109.465 87.8045 109.315C87.7915 109.165 87.8212 109.014 87.8901 108.88C92.5301 100.02 97.4901 89.71 104.04 82.27C104.28 82.0833 104.493 81.99 104.68 81.99C104.987 81.9833 105.06 82.11 104.9 82.37L94.4601 99.01C94.3888 99.1333 94.3607 99.2775 94.3801 99.42C94.5101 100.27 95.4301 100.15 95.8101 99.63C100.637 93.0166 105.577 86.4833 110.63 80.03C115.54 73.77 118.85 67.06 122.73 60.22C123.023 59.7066 122.937 59.6333 122.47 60C115.94 65.18 110.81 72.48 105.93 79.19C105.41 79.91 104.583 80.5633 103.45 81.15C103.077 81.4566 102.07 81.88 100.43 82.42C94.8901 84.27 89.5801 91.89 85.8101 96.58C76.6601 107.98 64.7301 116.72 55.6601 128.34C52.3001 132.65 48.1001 140.05 43.5201 142.8C42.9801 142.553 42.8901 142.417 43.2501 142.39L22.3901 143.49C22.3221 143.491 22.2556 143.47 22.2003 143.43C22.1449 143.39 22.1037 143.334 22.0825 143.27C22.0613 143.205 22.0613 143.135 22.0825 143.071C22.1036 143.006 22.1448 142.95 22.2001 142.91C25.4601 140.75 28.2201 139.44 32.4801 137.73C39.3268 134.983 45.3901 130.997 50.6701 125.77C50.9368 125.503 50.8867 125.407 50.5201 125.48C43.1601 126.927 35.7268 128.013 28.2201 128.74C38.6801 122.27 50.5301 118.2 60.2901 110.55C60.3092 110.534 60.3221 110.512 60.3269 110.487C60.3316 110.462 60.3279 110.437 60.3162 110.415C60.3046 110.393 60.2857 110.375 60.2628 110.365C60.2399 110.355 60.2142 110.353 60.1901 110.36L46.9901 114.46C46.0301 114.76 45.9701 114.637 46.8101 114.09C54.3101 109.26 62.9401 107.44 70.1001 102.36C70.7201 101.92 70.6668 101.813 69.9401 102.04C60.5101 104.96 52.8701 107.56 44.0301 107.74C43.5501 107.753 43.5201 107.637 43.9401 107.39C45.0601 106.73 45.8367 105.847 46.2701 104.74C48.8034 102.24 50.8334 99.3866 52.3601 96.18C52.495 95.8852 52.7391 95.6554 53.0401 95.54C57.8201 93.62 70.2301 88.52 72.3201 84.51C72.5268 84.1033 72.4201 83.9833 72.0001 84.15C63.6701 87.44 57.0601 88.3 50.1201 94.45C36.2467 100.163 22.7401 106.777 9.6001 114.29C9.13343 107.657 9.12343 101.42 9.5701 95.58C17.8968 88.4266 26.5134 82.23 35.4201 76.99C35.4777 76.9562 35.5435 76.9391 35.6103 76.9406C35.677 76.9421 35.742 76.9621 35.7981 76.9984C35.8541 77.0347 35.8989 77.0859 35.9275 77.1462C35.9561 77.2065 35.9674 77.2736 35.9601 77.34C35.5201 81.3133 34.1934 84.96 31.9801 88.28C31.9659 88.3107 31.9625 88.3453 31.9704 88.3782C31.9783 88.411 31.9971 88.4403 32.0238 88.4611C32.0504 88.482 32.0833 88.4932 32.1171 88.493C32.1509 88.4928 32.1837 88.4811 32.2101 88.46C33.2234 87.3066 33.9368 86.14 34.3501 84.96C34.4501 84.6866 34.6101 84.46 34.8301 84.28L42.2901 78.12C42.5434 77.9133 42.7068 77.97 42.7801 78.29C42.8201 78.49 42.7201 78.69 42.4801 78.89C42.2643 79.0653 42.1554 79.2903 42.1698 79.5314C42.1841 79.7724 42.3209 80.0166 42.5597 80.2272C42.7984 80.4378 43.1263 80.6035 43.4941 80.6996C43.862 80.7956 44.25 80.8168 44.6001 80.76C51.6334 79.6066 57.9734 76.8633 63.6201 72.53C64.2801 72.0233 64.2134 71.9 63.4201 72.16C59.7501 73.37 57.7801 73.93 53.8701 74.39C53.7989 74.3992 53.7265 74.3875 53.6618 74.3563C53.5971 74.3251 53.5429 74.2757 53.5058 74.2142C53.4687 74.1527 53.4503 74.0817 53.4528 74.01C53.4554 73.9382 53.4787 73.8687 53.5201 73.81L61.2501 62.61C61.3079 62.5293 61.3388 62.4324 61.3382 62.3331C61.3375 62.2339 61.3055 62.1374 61.2467 62.0574C61.1878 61.9775 61.1052 61.9182 61.0106 61.8881C60.916 61.8581 60.8143 61.8587 60.7201 61.89L57.1601 62.99C57.0282 63.0311 56.8877 63.0365 56.7531 63.0056C56.6184 62.9746 56.4944 62.9085 56.3937 62.8139C56.293 62.7193 56.2192 62.5996 56.1799 62.4672C56.1406 62.3347 56.1373 62.1942 56.1701 62.06C56.7201 59.81 58.8101 58.51 59.5301 55.89C67.5201 53.92 74.1701 57.77 82.3601 58.14C88.2301 58.4 94.0001 59.47 99.9201 59.03C105.833 58.5966 111.743 58.1866 117.65 57.8C119.74 57.66 121.87 56.25 124.42 57.83C124.566 57.9212 124.739 57.9581 124.909 57.9344C125.079 57.9106 125.235 57.8276 125.35 57.7C126.697 56.2133 128.11 55.2233 129.59 54.73ZM89.1201 64.15C84.2901 66.97 78.4201 71.99 76.4801 77.41C76.3801 77.7033 76.4667 77.7766 76.7401 77.63C82.4334 74.69 86.6834 70.31 89.4901 64.49C89.7434 63.97 89.6201 63.8566 89.1201 64.15ZM105.683 93.7056C105.856 93.8303 106.177 93.746 106.628 93.4574C107.08 93.1689 107.653 92.6817 108.315 92.0237C108.977 91.3657 109.715 90.5499 110.486 89.6227C111.258 88.6955 112.048 87.6751 112.812 86.6199C113.576 85.5646 114.299 84.4951 114.939 83.4725C115.578 82.4498 116.123 81.494 116.541 80.6596C116.959 79.8252 117.243 79.1286 117.376 78.6095C117.509 78.0905 117.489 77.7591 117.317 77.6344C117.145 77.5096 116.823 77.5939 116.372 77.8825C115.92 78.1711 115.347 78.6583 114.685 79.3162C114.023 79.9742 113.285 80.7901 112.514 81.7173C111.742 82.6445 110.952 83.6648 110.188 84.7201C109.424 85.7753 108.701 86.8448 108.062 87.8675C107.422 88.8901 106.877 89.846 106.459 90.6803C106.041 91.5147 105.757 92.2113 105.624 92.7304C105.491 93.2495 105.511 93.5808 105.683 93.7056ZM48.3357 82.8611C48.2652 82.7566 48.1234 82.7017 47.9182 82.6995C47.7131 82.6974 47.4487 82.748 47.1402 82.8486C46.8317 82.9492 46.4851 83.0977 46.1201 83.2856C45.7552 83.4736 45.3791 83.6973 45.0133 83.9441C44.6475 84.1908 44.2991 84.4557 43.9882 84.7237C43.6772 84.9916 43.4096 85.2574 43.2008 85.5058C42.992 85.7542 42.8459 85.9803 42.7711 86.1713C42.6962 86.3623 42.694 86.5144 42.7645 86.6189C42.835 86.7234 42.9768 86.7783 43.1819 86.7804C43.3871 86.7826 43.6514 86.7319 43.96 86.6313C44.2685 86.5308 44.6151 86.3823 44.98 86.1943C45.345 86.0064 45.7211 85.7826 46.0869 85.5359C46.4527 85.2891 46.801 85.0242 47.112 84.7563C47.423 84.4883 47.6906 84.2226 47.8994 83.9742C48.1082 83.7258 48.2542 83.4997 48.3291 83.3087C48.4039 83.1177 48.4062 82.9656 48.3357 82.8611Z" fill="#F6AE8C"/>
<path d="M59.5301 55.8899C58.8101 58.5099 56.7201 59.8099 56.1701 62.0599C56.1372 62.1941 56.1406 62.3346 56.1799 62.4671C56.2192 62.5996 56.2929 62.7192 56.3936 62.8138C56.4943 62.9084 56.6184 62.9746 56.7531 63.0055C56.8877 63.0364 57.0282 63.0311 57.1601 62.9899L60.7201 61.8899C60.8143 61.8586 60.916 61.858 61.0106 61.888C61.1052 61.9181 61.1878 61.9774 61.2466 62.0573C61.3055 62.1373 61.3375 62.2338 61.3381 62.3331C61.3387 62.4323 61.3079 62.5292 61.2501 62.6099L53.5201 73.8099C53.4787 73.8686 53.4553 73.9381 53.4528 74.0099C53.4503 74.0817 53.4687 74.1526 53.5058 74.2141C53.5429 74.2756 53.5971 74.325 53.6618 74.3562C53.7265 74.3874 53.7988 74.3991 53.8701 74.3899C57.7801 73.9299 59.7501 73.3699 63.4201 72.1599C64.2134 71.8999 64.2801 72.0232 63.6201 72.5299C57.9734 76.8632 51.6334 79.6066 44.6001 80.7599C44.25 80.8167 43.862 80.7955 43.4941 80.6995C43.1263 80.6034 42.7984 80.4377 42.5597 80.2271C42.3209 80.0165 42.1841 79.7724 42.1697 79.5313C42.1554 79.2902 42.2643 79.0652 42.4801 78.8899C42.7201 78.6899 42.8201 78.4899 42.7801 78.2899C42.7067 77.9699 42.5434 77.9132 42.2901 78.1199L34.83 84.2799C34.61 84.4599 34.4501 84.6866 34.3501 84.9599C33.9367 86.1399 33.2234 87.3066 32.2101 88.4599C32.1837 88.4811 32.1509 88.4927 32.1171 88.4929C32.0833 88.4931 32.0504 88.4819 32.0237 88.461C31.9971 88.4402 31.9783 88.4109 31.9704 88.3781C31.9624 88.3452 31.9659 88.3106 31.9801 88.2799C34.1934 84.9599 35.5201 81.3132 35.9601 77.3399C35.9674 77.2735 35.9561 77.2064 35.9275 77.1461C35.8989 77.0858 35.8541 77.0346 35.798 76.9983C35.742 76.962 35.677 76.942 35.6102 76.9405C35.5435 76.939 35.4777 76.9561 35.4201 76.9899C26.5134 82.2299 17.8967 88.4266 9.57007 95.5799L9.74005 86.9799C21.7001 74.5599 34.43 67.0799 50.08 59.0799C53.12 57.5866 56.2701 56.5232 59.5301 55.8899Z" fill="#95219A"/>
<path d="M50.08 59.08C34.43 67.08 21.7 74.56 9.73999 86.98L9.48999 70.28C9.66332 70.1333 9.75334 69.9166 9.76001 69.63C9.76668 69.3833 9.89335 69.23 10.14 69.17C12.17 68.68 13.97 67.11 15.7 66.59C22.64 64.5033 29.5867 62.43 36.54 60.37C36.6 60.3566 36.6267 60.4266 36.62 60.58C36.62 60.6533 36.6567 60.6866 36.73 60.68C40.5233 60.14 44.13 59.06 47.55 57.44C47.8767 57.2866 48.2133 57.25 48.56 57.33C49.9133 57.63 50.42 58.2133 50.08 59.08Z" fill="#F3A195"/>
<path d="M104.04 82.2699C104.093 81.7566 103.897 81.3833 103.45 81.1499C104.583 80.5633 105.41 79.9099 105.93 79.1899C110.81 72.4799 115.94 65.1799 122.47 59.9999C122.937 59.6333 123.023 59.7066 122.73 60.2199C118.85 67.0599 115.54 73.7699 110.63 80.0299C105.577 86.4833 100.637 93.0166 95.81 99.6299C95.43 100.15 94.51 100.27 94.38 99.4199C94.3606 99.2775 94.3887 99.1332 94.46 99.0099L104.9 82.3699C105.06 82.1099 104.987 81.9832 104.68 81.9899C104.493 81.9899 104.28 82.0832 104.04 82.2699Z" fill="#EB4879"/>
<path d="M76.4801 77.4099C78.4201 71.9899 84.2901 66.9699 89.1201 64.1499C89.6201 63.8566 89.7434 63.9699 89.4901 64.4899C86.6834 70.3099 82.4334 74.6899 76.7401 77.6299C76.4668 77.7766 76.3801 77.7032 76.4801 77.4099Z" fill="#C22A76"/>
<path d="M110.188 84.72C106.975 89.1579 104.959 93.1809 105.683 93.7055C106.408 94.2302 109.6 91.0578 112.812 86.6198C116.025 82.1819 118.042 78.1589 117.317 77.6343C116.592 77.1097 113.4 80.282 110.188 84.72Z" fill="#BC3B5B"/>
<path d="M103.45 81.1499C103.897 81.3832 104.093 81.7566 104.04 82.2699C97.4901 89.7099 92.5301 100.02 87.8901 108.88C87.8212 109.014 87.7915 109.165 87.8045 109.315C87.8175 109.465 87.8726 109.608 87.9635 109.728C88.0544 109.849 88.1774 109.941 88.3183 109.994C88.4593 110.047 88.6124 110.06 88.7601 110.03L91.5001 109.46C91.6218 109.436 91.7478 109.448 91.8627 109.495C91.9777 109.541 92.0767 109.62 92.1477 109.722C92.2187 109.823 92.2585 109.944 92.2625 110.067C92.2665 110.191 92.2344 110.314 92.1701 110.42C87.6767 117.613 82.7301 124.587 77.3301 131.34C77.322 131.353 77.3184 131.368 77.3197 131.383C77.3211 131.398 77.3273 131.412 77.3374 131.424C77.3476 131.435 77.3611 131.443 77.376 131.446C77.391 131.449 77.4064 131.447 77.4201 131.44C84.4267 127.033 88.7167 123.97 90.2901 122.25C92.2701 120.09 98.5901 103.87 104.09 106.02C104.267 106.088 104.425 106.197 104.551 106.338C104.678 106.479 104.77 106.647 104.82 106.83L105.13 108.02C105.237 108.42 105.383 108.437 105.57 108.07C109.17 101.15 114.95 97.8166 122.91 98.0699C123.25 98.0832 123.56 97.9999 123.84 97.8199L128.88 94.6399C128.98 95.8932 128.153 96.7166 126.4 97.1099C123.48 97.7699 124.44 98.9499 123.54 101.05C120.62 107.897 116.993 114.343 112.66 120.39C112.387 120.777 112.483 120.967 112.95 120.96C113.597 120.96 114.127 120.637 114.54 119.99C118.593 113.663 121.073 109.413 121.98 107.24C123.613 103.327 125.473 100.397 127.56 98.4499C129.32 96.8032 130.123 97.1866 129.97 99.5999L128.72 118.89C113.87 125.86 98.0501 130.31 82.7001 136.41C76.3301 139.01 68.1801 141.46 61.2401 140.54C60.9001 140.493 60.6001 140.583 60.3401 140.81L59.7501 141.32L59.0001 140.75C59.3267 140.303 59.7867 140.033 60.3801 139.94C60.7134 139.887 60.9967 139.74 61.2301 139.5C69.5101 131 75.2101 121.89 82.0401 112.36C85.6301 107.36 88.0701 102.68 92.6401 97.2699C93.0501 96.7799 93.1901 96.0799 92.8501 95.5799C92.7603 95.4474 92.6393 95.3393 92.4975 95.2649C92.3557 95.1904 92.1976 95.1521 92.0368 95.1531C91.876 95.154 91.7175 95.1944 91.5752 95.2705C91.4328 95.3467 91.3109 95.4563 91.2201 95.5899C87.5934 101.03 84.0234 106.677 80.5101 112.53C78.2901 116.25 75.2301 119.69 73.0301 123C66.6601 132.55 60.9001 141.67 48.2201 142.35C46.7401 142.43 45.4734 142.73 44.4201 143.25L43.5601 143.27C43.4934 143.103 43.4801 142.947 43.5201 142.8C48.1001 140.05 52.3001 132.65 55.6601 128.34C64.7301 116.72 76.6601 107.98 85.8101 96.5799C89.5801 91.8899 94.8901 84.2699 100.43 82.4199C102.07 81.8799 103.077 81.4566 103.45 81.1499ZM116.327 107.506C116.37 107.46 116.404 107.406 116.426 107.347C116.448 107.288 116.458 107.225 116.455 107.162C116.453 107.099 116.438 107.037 116.412 106.98C116.386 106.922 116.349 106.871 116.302 106.828L116.244 106.773C116.198 106.73 116.144 106.697 116.084 106.675C116.025 106.653 115.963 106.643 115.9 106.645C115.837 106.648 115.775 106.662 115.717 106.688C115.66 106.715 115.608 106.752 115.565 106.798L108.173 114.754C108.13 114.8 108.097 114.854 108.075 114.913C108.053 114.972 108.042 115.035 108.045 115.098C108.047 115.161 108.062 115.223 108.088 115.28C108.114 115.337 108.151 115.389 108.198 115.432L108.256 115.487C108.302 115.529 108.357 115.563 108.416 115.585C108.475 115.607 108.538 115.617 108.601 115.615C108.664 115.612 108.726 115.598 108.783 115.571C108.84 115.545 108.892 115.508 108.935 115.462L116.327 107.506Z" fill="#E41D8B"/>
<path d="M46.0868 85.5359C47.6252 84.4982 48.632 83.3006 48.3355 82.8611C48.039 82.4215 46.5515 82.9064 45.0131 83.9441C43.4747 84.9818 42.4679 86.1793 42.7644 86.6189C43.0608 87.0584 44.5483 86.5735 46.0868 85.5359Z" fill="#C22A76"/>
<path d="M46.27 104.74V101C46.2728 100.839 46.3213 100.682 46.4098 100.548C46.4983 100.413 46.6232 100.306 46.77 100.24C49.7634 98.9001 50.88 96.9701 50.12 94.4501C57.06 88.3001 63.67 87.4401 72 84.1501C72.42 83.9834 72.5267 84.1034 72.32 84.5101C70.23 88.5201 57.82 93.6201 53.04 95.5401C52.7391 95.6555 52.4949 95.8853 52.36 96.1801C50.8333 99.3867 48.8034 102.24 46.27 104.74Z" fill="#C22A76"/>
<path d="M50.12 94.45C50.88 96.97 49.7633 98.9 46.77 100.24C46.6232 100.306 46.4983 100.413 46.4098 100.547C46.3212 100.682 46.2728 100.839 46.27 101V104.74C45.8366 105.847 45.06 106.73 43.94 107.39C43.52 107.637 43.55 107.753 44.03 107.74C52.87 107.56 60.51 104.96 69.94 102.04C70.6667 101.813 70.72 101.92 70.1 102.36C62.94 107.44 54.31 109.26 46.81 114.09C45.97 114.637 46.03 114.76 46.99 114.46L60.19 110.36C60.2141 110.353 60.2398 110.355 60.2627 110.365C60.2856 110.375 60.3045 110.393 60.3161 110.415C60.3278 110.437 60.3315 110.462 60.3268 110.487C60.322 110.512 60.3091 110.534 60.29 110.55C50.53 118.2 38.68 122.27 28.22 128.74C24.09 130.98 21.14 134.59 17.5 136.59C15.0933 137.91 12.63 139.09 10.11 140.13C9.73664 140.29 9.55332 140.167 9.55999 139.76L9.6 114.29C22.74 106.777 36.2467 100.163 50.12 94.45Z" fill="#95219A"/>
<path d="M59 140.75L48.38 143.97C48.0667 144.063 47.88 144.27 47.82 144.59L47.7 145.21C47.662 145.399 47.5662 145.571 47.4262 145.702C47.2863 145.833 47.1092 145.916 46.92 145.94L43.52 146.36C42.6067 146.24 42.9067 145.203 44.42 143.25C45.4734 142.73 46.74 142.43 48.22 142.35C60.9 141.67 66.66 132.55 73.03 123C75.23 119.69 78.29 116.25 80.51 112.53C84.0234 106.677 87.5934 101.03 91.22 95.5899C91.3109 95.4564 91.4328 95.3467 91.5751 95.2706C91.7175 95.1944 91.876 95.1541 92.0368 95.1531C92.1975 95.1521 92.3557 95.1905 92.4975 95.2649C92.6392 95.3393 92.7603 95.4475 92.85 95.5799C93.19 96.0799 93.05 96.7799 92.64 97.2699C88.07 102.68 85.63 107.36 82.04 112.36C75.21 121.89 69.51 131 61.23 139.5C60.9967 139.74 60.7134 139.887 60.38 139.94C59.7867 140.033 59.3267 140.303 59 140.75Z" fill="#DD4784"/>
<path d="M116.302 106.828L116.244 106.774C116.05 106.593 115.746 106.604 115.565 106.798L108.173 114.754C107.992 114.948 108.003 115.252 108.198 115.432L108.256 115.487C108.45 115.667 108.754 115.656 108.935 115.462L116.327 107.506C116.508 107.312 116.497 107.008 116.302 106.828Z" fill="#DD4784"/>
<path d="M128.72 118.89C129.4 121.91 129.52 124.86 129.08 127.74C117.807 133.4 106.05 136.007 93.8099 135.56C91.4033 135.473 87.9033 136.073 83.3099 137.36C82.9166 137.153 82.7133 136.837 82.7 136.41C98.05 130.31 113.87 125.86 128.72 118.89Z" fill="#F6AE8C"/>
<path d="M129.08 127.74L128.88 132.54C124.28 135.16 119.55 137.29 114.69 138.93C109.82 140.57 109.37 142.92 103.24 141.5C100.32 140.82 97.4267 140.13 94.56 139.43L93.47 139.54C93.1034 139.573 92.9 139.773 92.86 140.14C92.5467 143.093 90.8434 144.657 87.75 144.83C87.4834 144.85 87.2834 144.98 87.15 145.22L86.81 145.85C86.6167 146.217 86.3134 146.35 85.9 146.25C82.58 145.457 79.1134 145.15 75.5 145.33C74.3134 145.197 73.7234 145.44 73.73 146.06C71.6834 145.547 69.73 145.55 67.87 146.07C67.5573 146.155 67.2296 146.144 66.93 146.04C61.1167 144.073 55.2267 144.23 49.26 146.51C48.44 146.65 48.2133 147.217 48.58 148.21C48.7 148.523 48.9134 148.75 49.22 148.89L54.6 151.28C50.2534 152.533 46.8367 152.703 44.35 151.79C44.0557 151.679 43.7348 151.648 43.42 151.7C38.7067 152.5 34.1033 152.063 29.61 150.39C29.5142 150.353 29.4321 150.287 29.3749 150.202C29.3177 150.117 29.2882 150.016 29.2904 149.913C29.2926 149.81 29.3263 149.711 29.3871 149.628C29.4479 149.545 29.5327 149.483 29.63 149.45L31.06 149.01C31.3534 148.917 31.65 148.89 31.95 148.93C36.3567 149.517 40.2133 148.66 43.52 146.36L46.92 145.94C47.1092 145.916 47.2863 145.833 47.4262 145.702C47.5662 145.571 47.662 145.399 47.7 145.21L47.82 144.59C47.88 144.27 48.0667 144.063 48.38 143.97L59 140.75L59.75 141.32C61.63 144.09 80.14 138.65 83.31 137.36C87.9034 136.073 91.4034 135.473 93.81 135.56C106.05 136.007 117.807 133.4 129.08 127.74Z" fill="#C2319C"/>
<path d="M139.99 132.49C141.123 133.663 141.097 133.983 139.91 133.45C139.363 133.203 139.29 132.943 139.69 132.67C139.75 132.623 139.813 132.563 139.88 132.49C139.913 132.45 139.95 132.45 139.99 132.49Z" fill="#59405A"/>
<path d="M128.88 132.54C129.09 141.12 129.88 155.18 127.87 165.58C127.842 165.742 127.778 165.896 127.683 166.031C127.588 166.166 127.464 166.278 127.32 166.36C126.187 167.013 124.917 167.407 123.51 167.54L122.12 166.85C120.853 166.177 120.04 165.29 119.68 164.19C119.613 163.81 119.457 163.577 119.21 163.49C120.7 160.18 120.93 154.24 124.37 152.84C124.59 152.749 124.781 152.6 124.924 152.41C125.066 152.219 125.154 151.993 125.179 151.757C125.203 151.52 125.163 151.281 125.063 151.065C124.963 150.849 124.806 150.664 124.61 150.53L119.11 146.78C118.948 146.669 118.766 146.593 118.573 146.555C118.381 146.517 118.182 146.519 117.99 146.56C115.197 147.187 113.033 148.703 111.5 151.11C111.409 151.255 111.376 151.428 111.405 151.596C111.435 151.764 111.525 151.915 111.66 152.02L115.8 155.3C116.06 155.507 116.187 155.777 116.18 156.11C116.127 158.117 115.587 159.3 114.56 159.66L88.6499 167.05C88.0699 167.21 88.0499 167.43 88.5899 167.71C88.7966 167.817 89.0166 167.93 89.2499 168.05C89.3175 168.085 89.3719 168.14 89.405 168.209C89.4381 168.277 89.448 168.354 89.4334 168.429C89.4187 168.503 89.3801 168.571 89.3236 168.622C89.2671 168.673 89.1956 168.704 89.1199 168.71L87.2399 168.92L74.5199 168.82C73.9733 168.307 73.6666 167.9 73.6 167.6C73.5398 167.355 73.5754 167.098 73.6988 166.882C73.8223 166.667 74.0238 166.512 74.26 166.45C77.88 165.5 80.9699 164.74 84.9599 164.14C90.1199 163.36 100.12 161.8 102.67 156.82C103.41 155.38 102.993 154.847 101.42 155.22C92.2866 157.4 82.9799 158.967 73.4999 159.92C69.5533 160.313 66.2466 159.773 63.5799 158.3C63.2933 158.14 63.01 158.147 62.73 158.32C58.85 160.68 54.5799 161.92 51.0999 164.88C49.3199 166.393 47.5266 167.69 45.7199 168.77C34.7933 168.75 24.0533 168.74 13.4999 168.74C9.03994 168.74 9.02995 161.45 9.25995 158.52C9.40662 158.107 9.5866 157.787 9.79993 157.56C10.0533 157.307 10.2666 157.34 10.4399 157.66C11.5733 159.787 13.4133 160.467 15.9599 159.7C22.3266 157.793 28.6066 156.913 34.7999 157.06C36.8599 157.11 38.1899 156.29 40.2199 155.95C40.5199 155.897 40.7699 155.753 40.9699 155.52C41.2899 155.147 41.49 154.693 41.57 154.16C43.0166 153.893 44.8233 153.753 46.9899 153.74C49.5766 153.727 52.1133 152.907 54.5999 151.28L49.2199 148.89C48.9133 148.75 48.6999 148.523 48.5799 148.21C48.2133 147.217 48.44 146.65 49.26 146.51C56.39 147.05 63.3299 149.51 70.8499 151.99C77.3999 154.15 83.39 152.35 89.48 151.27C91.86 150.84 98.2599 149.64 99.1899 147.8C100.37 145.45 98.1499 142.37 96.0499 141.69C95.7099 141.583 95.3866 141.437 95.0799 141.25L94.0799 140.66C93.7199 140.447 93.6966 140.2 94.01 139.92L94.5599 139.43C97.4266 140.13 100.32 140.82 103.24 141.5C109.37 142.92 109.82 140.57 114.69 138.93C119.55 137.29 124.28 135.16 128.88 132.54Z" fill="#7B1582"/>
<path d="M82.7 136.41C82.7133 136.837 82.9167 137.153 83.31 137.36C80.14 138.65 61.63 144.09 59.75 141.32L60.34 140.81C60.6 140.583 60.9 140.493 61.24 140.54C68.18 141.46 76.33 139.01 82.7 136.41Z" fill="#DD4784"/>
<path d="M94.56 139.43L94.01 139.92C93.6967 140.2 93.72 140.447 94.08 140.66L95.08 141.25C95.3867 141.437 95.71 141.583 96.05 141.69C98.15 142.37 100.37 145.45 99.19 147.8C98.26 149.64 91.86 150.84 89.48 151.27C83.39 152.35 77.4 154.15 70.85 151.99C63.33 149.51 56.39 147.05 49.26 146.51C55.2267 144.23 61.1167 144.073 66.93 146.04C67.2296 146.144 67.5572 146.155 67.87 146.07C69.73 145.55 71.6833 145.547 73.73 146.06L78.03 148.1C78.339 148.244 78.6098 148.46 78.82 148.73C79.22 149.243 79.7633 149.387 80.45 149.16C80.5372 149.13 80.6157 149.08 80.6786 149.012C80.7416 148.945 80.7869 148.863 80.8106 148.774C80.8344 148.685 80.8358 148.592 80.8147 148.502C80.7937 148.412 80.7508 148.329 80.69 148.26C79.71 147.12 77.98 146.143 75.5 145.33C79.1133 145.15 82.58 145.457 85.9 146.25C86.3133 146.35 86.6167 146.217 86.81 145.85L87.15 145.22C87.2833 144.98 87.4833 144.85 87.75 144.83C90.8433 144.657 92.5467 143.093 92.86 140.14C92.9 139.773 93.1033 139.573 93.47 139.54L94.56 139.43Z" fill="#AA259C"/>
<path d="M43.25 142.39C42.89 142.417 42.98 142.553 43.52 142.8C43.48 142.947 43.4933 143.103 43.56 143.27C39.03 148.08 28.79 147.45 22.74 145.78C22.6742 145.757 22.618 145.713 22.5805 145.654C22.543 145.595 22.5263 145.526 22.5333 145.456C22.5402 145.387 22.5703 145.322 22.6187 145.272C22.6671 145.222 22.7309 145.189 22.8 145.18C27.67 144.8 32.4 144.23 37.34 144.23C39.3533 144.23 41.3233 143.617 43.25 142.39Z" fill="#EF7E96"/>
<path d="M75.5 145.33C77.98 146.143 79.71 147.12 80.69 148.26C80.7509 148.329 80.7937 148.412 80.8148 148.502C80.8358 148.592 80.8344 148.685 80.8107 148.774C80.7869 148.863 80.7416 148.945 80.6787 149.012C80.6158 149.08 80.5372 149.13 80.45 149.16C79.7634 149.387 79.22 149.243 78.82 148.73C78.6098 148.46 78.3391 148.245 78.03 148.1L73.73 146.06C73.7234 145.44 74.3134 145.197 75.5 145.33Z" fill="#DF4EBE"/>
<path d="M119.21 163.49L117.81 163.28C117.49 163.233 117.173 163.257 116.86 163.35C116.127 163.57 115.853 163.907 116.04 164.36C116.167 164.673 116.393 164.797 116.72 164.73C117.393 164.59 117.837 164.797 118.05 165.35C118.25 165.877 118.477 165.89 118.73 165.39C119.037 164.79 119.353 164.39 119.68 164.19C120.04 165.29 120.853 166.177 122.12 166.85C121.253 167.543 120.13 167.827 118.75 167.7C118.437 167.673 118.16 167.557 117.92 167.35L114.58 164.59C114.36 164.41 114.327 164.203 114.48 163.97C115.393 162.51 116.703 161.787 118.41 161.8C118.85 161.8 118.917 161.643 118.61 161.33C117.563 160.257 116.39 160.073 115.09 160.78C115.027 160.814 114.956 160.831 114.884 160.828C114.812 160.826 114.743 160.804 114.682 160.765C114.622 160.726 114.573 160.672 114.541 160.607C114.509 160.543 114.495 160.472 114.5 160.4L114.56 159.66C115.587 159.3 116.127 158.117 116.18 156.11C116.187 155.777 116.06 155.507 115.8 155.3L111.66 152.02C111.526 151.915 111.435 151.764 111.405 151.596C111.376 151.428 111.409 151.255 111.5 151.11C113.033 148.703 115.197 147.187 117.99 146.56C118.182 146.519 118.381 146.517 118.573 146.555C118.766 146.593 118.949 146.669 119.11 146.78L124.61 150.53C124.807 150.664 124.963 150.849 125.063 151.065C125.163 151.281 125.203 151.52 125.179 151.757C125.154 151.993 125.066 152.219 124.924 152.41C124.781 152.6 124.59 152.749 124.37 152.84C120.93 154.24 120.7 160.18 119.21 163.49ZM116.35 150.95L116.28 151.62C116.277 151.645 116.279 151.669 116.287 151.693C116.294 151.716 116.306 151.738 116.322 151.757C116.338 151.776 116.357 151.791 116.379 151.802C116.401 151.813 116.425 151.819 116.45 151.82L116.63 151.84C117.517 151.929 118.396 152.006 119.217 152.069C120.037 152.132 120.783 152.178 121.412 152.205C122.04 152.232 122.539 152.239 122.878 152.226C123.218 152.213 123.392 152.181 123.39 152.13L123.42 151.85C123.39 151.747 122.674 151.581 121.426 151.387C120.177 151.192 118.495 150.985 116.74 150.81L116.55 150.79C116.526 150.787 116.502 150.789 116.479 150.796C116.457 150.802 116.435 150.813 116.417 150.828C116.398 150.843 116.382 150.862 116.371 150.883C116.36 150.903 116.352 150.926 116.35 150.95Z" fill="#AA259C"/>
<path d="M41.5699 154.16C41.4899 154.693 41.2899 155.147 40.9699 155.52C40.7699 155.753 40.5199 155.897 40.2199 155.95C38.1899 156.29 36.8599 157.11 34.7999 157.06C28.6066 156.913 22.3266 157.793 15.9599 159.7C13.4132 160.467 11.5733 159.787 10.4399 157.66C10.2666 157.34 10.0532 157.307 9.79991 157.56C9.58658 157.787 9.4066 158.107 9.25993 158.52C9.0266 155 9.24326 151.5 9.90993 148.02C9.96993 147.707 10.1599 147.543 10.4799 147.53C17.8899 147.19 24.0099 149.53 31.8999 152.22C35.0299 153.29 38.2999 153.55 41.5699 154.16Z" fill="#AA259C"/>
<path d="M116.35 150.95C116.352 150.926 116.36 150.903 116.371 150.882C116.382 150.862 116.398 150.843 116.417 150.828C116.435 150.813 116.457 150.802 116.479 150.796C116.502 150.789 116.526 150.787 116.55 150.79L116.74 150.81C118.495 150.985 120.177 151.192 121.426 151.387C122.674 151.581 123.39 151.747 123.42 151.85L123.39 152.13C123.392 152.181 123.218 152.213 122.878 152.226C122.539 152.239 122.04 152.232 121.412 152.205C120.783 152.178 120.037 152.132 119.216 152.069C118.396 152.006 117.517 151.929 116.63 151.84L116.45 151.82C116.425 151.819 116.401 151.813 116.379 151.802C116.357 151.791 116.338 151.776 116.322 151.757C116.306 151.738 116.294 151.716 116.287 151.693C116.279 151.669 116.277 151.644 116.28 151.62L116.35 150.95Z" fill="#BC3B5B"/>
<path d="M74.52 168.82L45.72 168.77C47.5266 167.69 49.32 166.393 51.1 164.88C54.58 161.92 58.85 160.68 62.73 158.32C63.01 158.147 63.2933 158.14 63.58 158.3C66.2466 159.773 69.5533 160.313 73.5 159.92C82.98 158.967 92.2866 157.4 101.42 155.22C102.993 154.847 103.41 155.38 102.67 156.82C100.12 161.8 90.12 163.36 84.96 164.14C80.97 164.74 77.88 165.5 74.26 166.45C74.0239 166.512 73.8223 166.667 73.6989 166.882C73.5754 167.098 73.5399 167.355 73.6 167.6C73.6666 167.9 73.9733 168.307 74.52 168.82Z" fill="#9F2BAE"/>
<path d="M114.56 159.66L114.5 160.4C114.495 160.471 114.509 160.543 114.541 160.607C114.573 160.672 114.622 160.726 114.682 160.765C114.743 160.804 114.812 160.826 114.884 160.828C114.956 160.831 115.027 160.814 115.09 160.78C116.39 160.073 117.563 160.257 118.61 161.33C118.917 161.643 118.85 161.8 118.41 161.8C116.703 161.787 115.393 162.51 114.48 163.97C114.327 164.203 114.36 164.41 114.58 164.59L117.92 167.35C118.16 167.557 118.437 167.673 118.75 167.7C120.13 167.827 121.253 167.543 122.12 166.85L123.51 167.54C122.44 168.67 121.35 169.05 119.71 168.8C116.4 168.31 112.4 168.93 110.02 168.96C102.433 169.053 94.84 169.04 87.24 168.92L89.12 168.71C89.1957 168.703 89.2671 168.672 89.3237 168.622C89.3802 168.571 89.4187 168.503 89.4334 168.429C89.4481 168.354 89.4381 168.277 89.405 168.209C89.3719 168.14 89.3175 168.085 89.25 168.05C89.0167 167.93 88.7967 167.817 88.59 167.71C88.05 167.43 88.07 167.21 88.65 167.05L114.56 159.66Z" fill="#AA259C"/>
<path d="M119.21 163.49C119.457 163.577 119.613 163.81 119.68 164.19C119.353 164.39 119.037 164.79 118.73 165.39C118.477 165.89 118.25 165.877 118.05 165.35C117.837 164.797 117.393 164.59 116.72 164.73C116.393 164.797 116.167 164.673 116.04 164.36C115.853 163.907 116.127 163.57 116.86 163.35C117.173 163.257 117.49 163.233 117.81 163.28L119.21 163.49Z" fill="#C25C7A"/>
</svg>
