<svg width="100%" height="100%" viewBox="0 0 410 36" fill="none" xmlns="http://www.w3.org/2000/svg">
<g filter="url(#filter0_dd_66_7)">
<path d="M23.9375 15.2188C25.0312 15.2188 26.0391 14.8359 26.9609 14.0703C27.5547 13.5703 28 13.0078 28.2969 12.3828H27.5234C27.8516 11.7422 28.0156 11.0859 28.0156 10.4141C28.0156 9.69531 27.7578 9.00781 27.2422 8.35156C26.7422 7.69531 25.9453 7.36719 24.8516 7.36719H14.9609L13.9062 12.3828H14.6562L14.0469 15.2188H23.9375ZM9.00781 35.375H2.86719L3.71094 31.4141H6.73438L8.04688 25.25H5.77344L8.51562 12.3828H7.76562L9.24219 5.44531H11.4922L12.3828 1.22656H28.4141C30.2578 1.22656 31.8516 1.67969 33.1953 2.58594C34.2891 3.33594 35.125 4.28906 35.7031 5.44531H33.4297L33.4531 5.51562C34.0312 6.59375 34.3203 7.79688 34.3203 9.125C34.3203 10.25 34.1406 11.3359 33.7812 12.3828H34.5547C34.0859 13.8203 33.3672 15.1484 32.3984 16.3672C31.1641 17.8984 29.6953 19.1094 27.9922 20C26.4766 20.7969 24.9141 21.2422 23.3047 21.3359L25.3672 25.25H27.6406L30.9453 31.4141H27.9453L30.0547 35.3516H22.3672L20.2578 31.4141H23.2578L19.9531 25.25H17.6797L15.6172 21.3594H12.7578L11.9141 25.25H14.1875L12.875 31.4141H9.85156L9.00781 35.375Z" fill="white"/>
<path d="M52.5312 21.2188L51.0781 12.3828H50.3281L50.1172 11.0938L49.3672 12.3828H50.1172L44.9375 21.2188H52.5312ZM60.6172 35.375H54.0781L53.4219 31.4141H56.4453L55.7891 27.3828H43.5781L41.2344 31.4141H38.2109L35.8906 35.375H29.3047L31.625 31.4141H34.6484L38.2578 25.25H35.9844L43.5547 12.3828H42.7812L46.8594 5.44531H49.1328L51.5938 1.22656H57.3594L58.0625 5.44531H55.7891L56.9141 12.3828H57.6641L59.7266 25.25H62L63.0078 31.4141H59.9844L60.6172 35.375Z" fill="white"/>
<path d="M76.8359 35.375H70.6719L71.5156 31.4141H74.5391L75.8516 25.25H73.5781L76.3203 12.3828H75.5703L76.625 7.39062H66.6641L67.0859 5.44531H69.3594L70.25 1.22656H96.3359L95.4453 5.44531H93.1719L92.75 7.39062H82.7891L81.7344 12.3828H82.4844L79.7422 25.25H82.0156L80.7031 31.4141H77.6797L76.8359 35.375Z" fill="white"/>
<path d="M115.648 35.375H89.5625L90.4062 31.4141H93.4297L94.7188 25.25H92.4453L95.1875 12.3828H94.4375L95.9141 5.44531H98.1641L99.0547 1.25H125.164L124.273 5.44531H122L121.578 7.41406H101.633L100.578 12.3828H101.328L100.719 15.2422H116.703L115.391 21.3828H99.4062L98.5859 25.25H100.859L100.016 29.2344H119.961L119.516 31.4141H116.492L115.648 35.375Z" fill="white"/>
<path d="M131.773 35.7734C129.039 35.7734 126.695 35.2109 124.742 34.0859C123.477 33.3672 122.477 32.4766 121.742 31.4141H124.766C124.328 30.8047 123.992 30.1406 123.758 29.4219L122.914 26.6797L125.938 25.25H123.664L126.688 23.8203L127.156 25.25H129.43L129.828 26.5391C130.109 27.4297 130.805 28.1562 131.914 28.7188C133.102 29.3281 134.5 29.6328 136.109 29.6328C137.453 29.6328 138.734 29.4219 139.953 29C141.172 28.5625 142.164 28.0156 142.93 27.3594C143.711 26.7031 144.133 26 144.195 25.25H141.922L141.945 24.9688C141.945 24.5156 141.781 24.0781 141.453 23.6562C140.969 22.9844 140.211 22.4375 139.18 22.0156C138.148 21.5938 136.953 21.3828 135.594 21.3828C133.156 21.3828 131.023 20.9453 129.195 20.0703C127.383 19.1797 126.031 17.9688 125.141 16.4375C124.531 15.3438 124.227 14.1641 124.227 12.8984L124.25 12.3828H123.477C123.492 11.9609 123.547 11.5312 123.641 11.0938C124.062 9.125 125.07 7.34375 126.664 5.75L127.016 5.44531H129.289C130.742 4.07031 132.492 2.96094 134.539 2.11719C136.742 1.24219 139.055 0.804688 141.477 0.804688C144.195 0.804688 146.531 1.36719 148.484 2.49219C149.875 3.27344 150.938 4.25781 151.672 5.44531H149.422C149.75 5.99219 150.016 6.57031 150.219 7.17969L151.062 9.92188L145.883 12.3828H146.633L145.766 12.8047L145.648 12.3828H144.898L144.172 10.0391C143.875 9.17969 143.148 8.45312 141.992 7.85938C140.852 7.26562 139.492 6.96875 137.914 6.96875C136.539 6.96875 135.242 7.1875 134.023 7.625C132.82 8.04688 131.828 8.58594 131.047 9.24219C130.188 9.96094 129.758 10.7266 129.758 11.5391C129.758 11.8359 129.82 12.1172 129.945 12.3828H130.695C131.07 13.2734 131.938 14 133.297 14.5625C134.328 15 135.531 15.2188 136.906 15.2188C139.328 15.2188 141.445 15.6641 143.258 16.5547C145.086 17.4453 146.438 18.6484 147.312 20.1641C147.938 21.2578 148.25 22.4375 148.25 23.7031C148.25 24.2031 148.203 24.7188 148.109 25.25H150.383C150.008 27.3125 148.984 29.1797 147.312 30.8516C147.109 31.0547 146.898 31.2422 146.68 31.4141H143.656C142.25 32.6797 140.594 33.6953 138.688 34.4609C136.5 35.3359 134.195 35.7734 131.773 35.7734Z" fill="white"/>
<path d="M186.922 15.2188C188.016 15.2188 189.023 14.8359 189.945 14.0703C190.539 13.5703 190.984 13.0078 191.281 12.3828H190.531C190.859 11.7578 191.023 11.1172 191.023 10.4609C191.023 9.74219 190.758 9.05469 190.227 8.39844C189.711 7.72656 188.914 7.39062 187.836 7.39062H177.945L176.891 12.3828H177.641L177.031 15.2188H186.922ZM171.992 35.375H165.828L166.672 31.4141H169.695L171.008 25.25H168.734L171.477 12.3828H170.727L172.203 5.44531H174.477L175.367 1.22656H191.422C193.266 1.22656 194.859 1.6875 196.203 2.60938C197.281 3.34375 198.109 4.28906 198.688 5.44531H196.414L196.438 5.51562C197.031 6.60938 197.328 7.82031 197.328 9.14844C197.328 10.3047 197.148 11.3828 196.789 12.3828H197.539C197.086 13.8203 196.367 15.1562 195.383 16.3906C194.148 17.9062 192.672 19.1172 190.953 20.0234C189.234 20.9297 187.453 21.3828 185.609 21.3828H175.719L174.898 25.25H177.172L175.859 31.4141H172.836L171.992 35.375Z" fill="white"/>
<path d="M215.844 15.2188C216.938 15.2188 217.945 14.8359 218.867 14.0703C219.461 13.5703 219.906 13.0078 220.203 12.3828H219.43C219.758 11.7422 219.922 11.0859 219.922 10.4141C219.922 9.69531 219.664 9.00781 219.148 8.35156C218.648 7.69531 217.852 7.36719 216.758 7.36719H206.867L205.812 12.3828H206.562L205.953 15.2188H215.844ZM200.914 35.375H194.773L195.617 31.4141H198.641L199.953 25.25H197.68L200.422 12.3828H199.672L201.148 5.44531H203.398L204.289 1.22656H220.32C222.164 1.22656 223.758 1.67969 225.102 2.58594C226.195 3.33594 227.031 4.28906 227.609 5.44531H225.336L225.359 5.51562C225.938 6.59375 226.227 7.79688 226.227 9.125C226.227 10.25 226.047 11.3359 225.688 12.3828H226.461C225.992 13.8203 225.273 15.1484 224.305 16.3672C223.07 17.8984 221.602 19.1094 219.898 20C218.383 20.7969 216.82 21.2422 215.211 21.3359L217.273 25.25H219.547L222.852 31.4141H219.852L221.961 35.3516H214.273L212.164 31.4141H215.164L211.859 25.25H209.586L207.523 21.3594H204.664L203.82 25.25H206.094L204.781 31.4141H201.758L200.914 35.375Z" fill="white"/>
<path d="M242.703 29.6328C244.375 29.6328 246 29.1406 247.578 28.1562C248.797 27.3906 249.906 26.4219 250.906 25.25H248.656C250.391 23.2188 251.531 20.8984 252.078 18.2891C252.297 17.2734 252.406 16.2969 252.406 15.3594C252.406 14.3125 252.266 13.3203 251.984 12.3828H251.234C250.734 10.7422 249.906 9.42969 248.75 8.44531C247.594 7.46094 246.18 6.96875 244.508 6.96875C242.82 6.96875 241.188 7.46094 239.609 8.44531C238.031 9.42969 236.648 10.7422 235.461 12.3828H236.211L236.07 12.5469C234.867 14.2656 234.039 16.1797 233.586 18.2891C233.367 19.3047 233.258 20.2734 233.258 21.1953C233.258 22.6641 233.523 24.0156 234.055 25.25H236.328C236.828 26.4219 237.531 27.3906 238.438 28.1562C239.578 29.1406 241 29.6328 242.703 29.6328ZM238.367 35.7734C234.477 35.7734 231.398 34.3203 229.133 31.4141H232.156C230.781 29.6641 229.891 27.6094 229.484 25.25H227.211C227.055 24.3438 226.977 23.4219 226.977 22.4844C226.977 21.1406 227.133 19.7422 227.445 18.2891C227.883 16.2109 228.602 14.2422 229.602 12.3828H228.828C230.234 9.72656 232.086 7.41406 234.383 5.44531H236.656C240.25 2.35156 244.055 0.804688 248.07 0.804688C252.102 0.804688 255.258 2.35156 257.539 5.44531H255.289C256.742 7.41406 257.602 9.72656 257.867 12.3828H258.617C258.68 12.9453 258.711 13.5156 258.711 14.0938C258.711 15.4375 258.555 16.8359 258.242 18.2891C257.711 20.7578 256.805 23.0781 255.523 25.25H257.773C256.383 27.6094 254.625 29.6641 252.5 31.4141H249.477C245.945 34.3203 242.242 35.7734 238.367 35.7734Z" fill="white"/>
<path d="M272.914 35.375H266.75L267.594 31.4141H270.617L271.93 25.25H269.656L272.398 12.3828H271.648L272.703 7.39062H262.742L263.164 5.44531H265.438L266.328 1.22656H292.414L291.523 5.44531H289.25L288.828 7.39062H278.867L277.812 12.3828H278.562L275.82 25.25H278.094L276.781 31.4141H273.758L272.914 35.375Z" fill="white"/>
<path d="M305.281 29.6328C306.953 29.6328 308.578 29.1406 310.156 28.1562C311.375 27.3906 312.484 26.4219 313.484 25.25H311.234C312.969 23.2188 314.109 20.8984 314.656 18.2891C314.875 17.2734 314.984 16.2969 314.984 15.3594C314.984 14.3125 314.844 13.3203 314.562 12.3828H313.812C313.312 10.7422 312.484 9.42969 311.328 8.44531C310.172 7.46094 308.758 6.96875 307.086 6.96875C305.398 6.96875 303.766 7.46094 302.188 8.44531C300.609 9.42969 299.227 10.7422 298.039 12.3828H298.789L298.648 12.5469C297.445 14.2656 296.617 16.1797 296.164 18.2891C295.945 19.3047 295.836 20.2734 295.836 21.1953C295.836 22.6641 296.102 24.0156 296.633 25.25H298.906C299.406 26.4219 300.109 27.3906 301.016 28.1562C302.156 29.1406 303.578 29.6328 305.281 29.6328ZM300.945 35.7734C297.055 35.7734 293.977 34.3203 291.711 31.4141H294.734C293.359 29.6641 292.469 27.6094 292.062 25.25H289.789C289.633 24.3438 289.555 23.4219 289.555 22.4844C289.555 21.1406 289.711 19.7422 290.023 18.2891C290.461 16.2109 291.18 14.2422 292.18 12.3828H291.406C292.812 9.72656 294.664 7.41406 296.961 5.44531H299.234C302.828 2.35156 306.633 0.804688 310.648 0.804688C314.68 0.804688 317.836 2.35156 320.117 5.44531H317.867C319.32 7.41406 320.18 9.72656 320.445 12.3828H321.195C321.258 12.9453 321.289 13.5156 321.289 14.0938C321.289 15.4375 321.133 16.8359 320.82 18.2891C320.289 20.7578 319.383 23.0781 318.102 25.25H320.352C318.961 27.6094 317.203 29.6641 315.078 31.4141H312.055C308.523 34.3203 304.82 35.7734 300.945 35.7734Z" fill="white"/>
<path d="M333.523 35.8672C329.555 35.8047 326.453 34.3203 324.219 31.4141H327.242C325.883 29.6797 325 27.625 324.594 25.25H322.344C322.203 24.3594 322.133 23.4453 322.133 22.5078C322.133 19.0547 323.008 15.6797 324.758 12.3828H323.984C325.391 9.72656 327.242 7.41406 329.539 5.44531H331.812C335.328 2.42969 339.133 0.882812 343.227 0.804688C347.211 0.851562 350.352 2.39844 352.648 5.44531H350.375L351.219 6.59375L345.734 10.6953L345.195 9.92188C343.836 7.96875 341.992 6.98438 339.664 6.96875C337.977 7 336.344 7.5 334.766 8.46875C333.188 9.4375 331.812 10.7422 330.641 12.3828H331.391C330.078 14.2266 329.195 16.2109 328.742 18.3359C328.523 19.3516 328.414 20.3281 328.414 21.2656C328.414 22.7031 328.672 24.0312 329.188 25.25H331.461C331.961 26.4531 332.672 27.4375 333.594 28.2031C334.75 29.1719 336.18 29.6719 337.883 29.7031C340.227 29.6875 342.492 28.6953 344.68 26.7266L345.57 25.9297L349.32 30.0078L347.703 31.4141H344.68C341.18 34.3047 337.461 35.7891 333.523 35.8672Z" fill="white"/>
<path d="M367.859 29.6328C369.531 29.6328 371.156 29.1406 372.734 28.1562C373.953 27.3906 375.062 26.4219 376.062 25.25H373.812C375.547 23.2188 376.688 20.8984 377.234 18.2891C377.453 17.2734 377.562 16.2969 377.562 15.3594C377.562 14.3125 377.422 13.3203 377.141 12.3828H376.391C375.891 10.7422 375.062 9.42969 373.906 8.44531C372.75 7.46094 371.336 6.96875 369.664 6.96875C367.977 6.96875 366.344 7.46094 364.766 8.44531C363.188 9.42969 361.805 10.7422 360.617 12.3828H361.367L361.227 12.5469C360.023 14.2656 359.195 16.1797 358.742 18.2891C358.523 19.3047 358.414 20.2734 358.414 21.1953C358.414 22.6641 358.68 24.0156 359.211 25.25H361.484C361.984 26.4219 362.688 27.3906 363.594 28.1562C364.734 29.1406 366.156 29.6328 367.859 29.6328ZM363.523 35.7734C359.633 35.7734 356.555 34.3203 354.289 31.4141H357.312C355.938 29.6641 355.047 27.6094 354.641 25.25H352.367C352.211 24.3438 352.133 23.4219 352.133 22.4844C352.133 21.1406 352.289 19.7422 352.602 18.2891C353.039 16.2109 353.758 14.2422 354.758 12.3828H353.984C355.391 9.72656 357.242 7.41406 359.539 5.44531H361.812C365.406 2.35156 369.211 0.804688 373.227 0.804688C377.258 0.804688 380.414 2.35156 382.695 5.44531H380.445C381.898 7.41406 382.758 9.72656 383.023 12.3828H383.773C383.836 12.9453 383.867 13.5156 383.867 14.0938C383.867 15.4375 383.711 16.8359 383.398 18.2891C382.867 20.7578 381.961 23.0781 380.68 25.25H382.93C381.539 27.6094 379.781 29.6641 377.656 31.4141H374.633C371.102 34.3203 367.398 35.7734 363.523 35.7734Z" fill="white"/>
<path d="M403.625 35.375H381.5L382.344 31.4141H385.367L386.68 25.25H384.406L387.148 12.3828H386.398L387.875 5.44531H390.148L391.039 1.25H397.203L396.312 5.44531H394.039L392.562 12.3828H393.312L390.57 25.25H392.844L392 29.2344H407.961L407.492 31.4141H404.469L403.625 35.375Z" fill="white"/>
</g>
<defs>
<filter id="filter0_dd_66_7" x="0.867188" y="0.804688" width="409.094" height="35.0625" filterUnits="userSpaceOnUse" color-interpolation-filters="sRGB">
<feFlood flood-opacity="0" result="BackgroundImageFix"/>
<feColorMatrix in="SourceAlpha" type="matrix" values="0 0 0 0 0 0 0 0 0 0 0 0 0 0 0 0 0 0 127 0" result="hardAlpha"/>
<feOffset dx="2"/>
<feComposite in2="hardAlpha" operator="out"/>
<feColorMatrix type="matrix" values="0 0 0 0 0.0291667 0 0 0 0 0.699924 0 0 0 0 1 0 0 0 1 0"/>
<feBlend mode="normal" in2="BackgroundImageFix" result="effect1_dropShadow_66_7"/>
<feColorMatrix in="SourceAlpha" type="matrix" values="0 0 0 0 0 0 0 0 0 0 0 0 0 0 0 0 0 0 127 0" result="hardAlpha"/>
<feOffset dx="-2"/>
<feComposite in2="hardAlpha" operator="out"/>
<feColorMatrix type="matrix" values="0 0 0 0 1 0 0 0 0 0.295455 0 0 0 0 0 0 0 0 1 0"/>
<feBlend mode="normal" in2="effect1_dropShadow_66_7" result="effect2_dropShadow_66_7"/>
<feBlend mode="normal" in="SourceGraphic" in2="effect2_dropShadow_66_7" result="shape"/>
</filter>
</defs>
</svg>
